<?xml version="1.0" encoding="UTF-8"?>
<!-- Generator: visioncortex VTracer 0.6.3 -->
<svg version="1.1" xmlns="http://www.w3.org/2000/svg" width="3000" height="2000">
<path d="M0 0 C1.9 -0.02 3.8 -0.04 5.7 -0.07 C10.91 -0.14 16.12 -0.12 21.33 -0.08 C26.95 -0.06 32.57 -0.12 38.2 -0.16 C49.21 -0.24 60.22 -0.24 71.23 -0.22 C80.18 -0.2 89.13 -0.2 98.08 -0.22 C99.36 -0.23 100.63 -0.23 101.94 -0.23 C104.53 -0.24 107.12 -0.25 109.71 -0.25 C127.09 -0.3 144.47 -0.32 161.85 -0.28 C162.87 -0.28 162.87 -0.28 163.91 -0.27 C169.43 -0.26 174.94 -0.25 180.46 -0.24 C201.97 -0.19 223.48 -0.22 244.99 -0.32 C269.18 -0.44 293.36 -0.49 317.54 -0.46 C320.12 -0.45 322.7 -0.45 325.28 -0.45 C326.55 -0.45 327.82 -0.45 329.13 -0.44 C338.07 -0.44 347 -0.47 355.94 -0.53 C366.84 -0.59 377.73 -0.59 388.63 -0.51 C394.19 -0.47 399.74 -0.46 405.3 -0.53 C440.43 -0.93 440.43 -0.93 447.82 5.78 C450.88 9.45 452.91 13.26 454.57 17.73 C455.65 20.5 457.25 22.73 459.04 25.09 C459.99 26.49 460.94 27.9 461.88 29.3 C467.35 37.36 472.98 45.27 478.7 53.14 C479.41 54.12 479.41 54.12 480.12 55.11 C481.13 56.47 482.21 57.77 483.31 59.06 C484.38 60.8 484.38 60.8 484.08 62.71 C482.92 66.19 480.67 69.02 478.57 71.99 C477.84 73.05 477.84 73.05 477.09 74.12 C475.53 76.35 473.96 78.58 472.38 80.8 C471.39 82.22 470.4 83.63 469.41 85.04 C466.91 88.59 464.41 92.13 461.9 95.66 C459.39 99.21 456.89 102.76 454.38 106.3 C453.38 107.72 452.38 109.14 451.38 110.55 C450.64 111.61 450.64 111.61 449.88 112.68 C440.38 126.14 430.88 139.6 421.38 153.05 C420.64 154.11 420.64 154.11 419.88 155.18 C418.89 156.59 417.89 158 416.89 159.41 C414.33 163.05 411.76 166.69 409.21 170.34 C408.42 171.46 408.42 171.46 407.62 172.6 C406.63 174.01 405.64 175.42 404.66 176.83 C403.76 178.11 402.84 179.39 401.91 180.64 C400.35 182.77 400.35 182.77 399.12 185.05 C396.65 189.02 394.62 191.35 390.16 192.99 C386.02 193.84 381.91 194.43 377.72 194.94 C376.12 195.16 374.53 195.39 372.93 195.62 C368.61 196.24 364.28 196.8 359.96 197.36 C355.42 197.95 350.89 198.59 346.36 199.22 C338.76 200.28 331.15 201.3 323.54 202.31 C312.82 203.73 302.1 205.2 291.38 206.67 C277.02 208.65 262.65 210.61 248.28 212.52 C246.72 212.73 245.17 212.94 243.62 213.15 C241.49 213.43 239.37 213.71 237.25 213.99 C235.47 214.23 235.47 214.23 233.65 214.47 C230.53 214.79 227.51 214.87 224.38 214.8 C226.83 212.06 229.49 210.48 232.7 208.72 C233.78 208.13 234.86 207.53 235.98 206.92 C237.15 206.28 238.33 205.63 239.51 204.99 C240.73 204.32 241.95 203.65 243.17 202.98 C245.05 201.94 246.93 200.9 248.82 199.87 C254.9 196.53 260.96 193.14 267.01 189.74 C269.05 188.6 271.09 187.45 273.13 186.31 C274.15 185.74 275.17 185.17 276.21 184.58 C279.56 182.71 282.91 180.83 286.26 178.96 C287.39 178.32 288.52 177.69 289.68 177.04 C291.84 175.83 293.99 174.63 296.15 173.42 C298.07 172.35 299.98 171.27 301.88 170.18 C304.38 168.8 304.38 168.8 306.49 167.9 C310.51 166.12 312 164.1 313.59 160.19 C314.29 158.11 314.97 156.02 315.63 153.93 C316.25 152.1 316.86 150.27 317.48 148.45 C317.95 147.05 318.42 145.65 318.88 144.26 C322.37 133.75 326.11 123.33 329.8 112.89 C331.84 107.13 333.87 101.36 335.9 95.59 C336.42 94.1 336.42 94.1 336.95 92.59 C340.44 82.66 343.91 72.73 347.38 62.8 C287.98 62.8 228.58 62.8 167.38 62.8 C166.72 64.45 166.06 66.1 165.38 67.8 C164.19 69.71 164.19 69.71 162.84 71.53 C162.33 72.22 161.82 72.91 161.3 73.63 C160.75 74.37 160.2 75.11 159.63 75.87 C158.45 77.48 157.27 79.1 156.09 80.71 C155.17 81.97 155.17 81.97 154.24 83.25 C151.21 87.42 148.27 91.64 145.32 95.87 C144.15 97.55 142.97 99.24 141.79 100.92 C141.22 101.74 140.65 102.56 140.06 103.4 C137.47 107.11 134.87 110.8 132.26 114.49 C131.77 115.18 131.28 115.87 130.78 116.58 C129.81 117.96 128.83 119.35 127.85 120.73 C125.36 124.25 122.87 127.78 120.38 131.3 C119.38 132.72 118.38 134.14 117.38 135.55 C116.89 136.26 116.39 136.96 115.88 137.68 C98.38 162.47 80.88 187.26 63.38 212.05 C62.89 212.76 62.39 213.46 61.88 214.18 C60.88 215.59 59.89 217.01 58.89 218.42 C56.36 222 53.84 225.58 51.31 229.16 C50.81 229.88 50.3 230.6 49.78 231.33 C48.77 232.76 47.77 234.19 46.77 235.61 C44.36 239.05 41.91 242.46 39.37 245.81 C38.9 246.44 38.43 247.07 37.94 247.73 C37.05 248.91 36.15 250.09 35.24 251.25 C32.87 254.41 32.87 254.41 32.61 258.22 C33.43 260.96 34.46 262.75 36.12 265.07 C36.69 265.87 37.26 266.67 37.84 267.49 C38.45 268.34 39.06 269.18 39.7 270.05 C40.33 270.94 40.96 271.83 41.61 272.74 C42.91 274.56 44.21 276.38 45.51 278.19 C47.71 281.26 49.88 284.33 52.05 287.42 C53.51 289.5 54.98 291.58 56.45 293.66 C59.43 297.87 62.41 302.09 65.38 306.3 C66.38 307.72 67.38 309.14 68.38 310.55 C146.38 421.05 146.38 421.05 147.89 423.18 C148.88 424.59 149.87 425.99 150.86 427.39 C153.5 431.13 156.14 434.87 158.77 438.62 C159.32 439.4 159.88 440.19 160.44 440.99 C161.51 442.51 162.58 444.02 163.64 445.54 C165.84 448.81 165.84 448.81 168.38 451.8 C169.84 451.91 171.31 451.94 172.77 451.94 C173.72 451.95 174.68 451.95 175.66 451.96 C176.72 451.96 177.78 451.96 178.87 451.96 C179.98 451.97 181.1 451.97 182.25 451.98 C186.02 451.99 189.79 452 193.56 452.01 C196.25 452.02 198.94 452.03 201.63 452.04 C207.43 452.06 213.24 452.08 219.05 452.1 C227.44 452.12 235.84 452.15 244.24 452.18 C257.86 452.22 271.48 452.27 285.1 452.31 C298.33 452.35 311.57 452.39 324.8 452.43 C326.02 452.44 326.02 452.44 327.27 452.44 C331.36 452.45 335.45 452.47 339.54 452.48 C373.49 452.6 407.44 452.7 441.38 452.8 C439.73 457.2 437.46 460.65 434.63 464.37 C430.13 470.4 425.75 476.5 421.45 482.68 C420.86 483.52 420.28 484.36 419.67 485.22 C418.49 486.91 417.31 488.6 416.14 490.3 C413.33 494.31 410.52 498.31 407.7 502.3 C407.2 503 406.71 503.7 406.2 504.43 C405.74 505.08 405.28 505.73 404.81 506.4 C404.21 507.24 404.21 507.24 403.6 508.11 C403.2 508.67 402.8 509.23 402.38 509.8 C402 510.49 401.63 511.17 401.24 511.88 C399.38 513.8 399.38 513.8 396.34 514.32 C395.08 514.33 393.82 514.34 392.52 514.34 C391.81 514.35 391.11 514.36 390.38 514.37 C388 514.4 385.62 514.4 383.23 514.4 C381.52 514.41 379.8 514.43 378.08 514.45 C373.34 514.49 368.61 514.51 363.87 514.52 C358.77 514.54 353.67 514.58 348.56 514.61 C336.23 514.7 323.9 514.74 311.57 514.78 C306.93 514.8 302.29 514.81 297.64 514.83 C277.18 514.91 256.72 514.98 236.26 515.01 C231.25 515.02 226.24 515.03 221.23 515.04 C219.36 515.04 219.36 515.04 217.45 515.05 C197.29 515.08 177.12 515.19 156.95 515.33 C136.25 515.47 115.55 515.55 94.85 515.57 C83.22 515.58 71.6 515.61 59.97 515.72 C50.07 515.82 40.17 515.85 30.27 515.81 C25.22 515.79 20.17 515.8 15.12 515.89 C-16.79 516.38 -16.79 516.38 -23.51 510.19 C-26.31 506.75 -28.08 503.18 -29.65 499.05 C-31.36 495.07 -34.03 491.76 -36.62 488.3 C-37.62 486.89 -38.62 485.47 -39.62 484.05 C-40.11 483.35 -40.61 482.65 -41.12 481.93 C-129.62 356.55 -129.62 356.55 -131.12 354.43 C-132.12 353.01 -133.12 351.59 -134.12 350.18 C-136.61 346.65 -139.1 343.12 -141.58 339.59 C-146.69 332.33 -151.84 325.11 -157.05 317.93 C-162.08 311.01 -166.93 304 -171.73 296.92 C-175.52 291.36 -179.41 285.88 -183.37 280.43 C-183.9 279.69 -184.44 278.95 -184.99 278.18 C-187.47 274.75 -189.96 271.34 -192.5 267.96 C-193.35 266.81 -194.2 265.65 -195.05 264.49 C-195.8 263.51 -196.54 262.52 -197.3 261.5 C-198.62 258.8 -198.62 258.8 -198.18 256.43 C-196.04 252.83 -193.69 249.44 -191.24 246.05 C-190.15 244.53 -189.06 243 -187.97 241.48 C-187.41 240.7 -186.85 239.92 -186.28 239.12 C-183.7 235.53 -181.16 231.92 -178.62 228.3 C-177.62 226.89 -176.62 225.47 -175.62 224.05 C-175.12 223.35 -174.63 222.65 -174.12 221.93 C-132.62 163.14 -91.12 104.35 -49.62 45.55 C-49.12 44.85 -48.63 44.15 -48.12 43.43 C-47.12 42.01 -46.12 40.6 -45.12 39.19 C-42.59 35.61 -40.07 32.03 -37.55 28.45 C-37.03 27.72 -36.52 27 -36 26.25 C-35.05 24.91 -34.1 23.56 -33.15 22.21 C-32.24 20.92 -31.32 19.64 -30.37 18.38 C-28.5 15.73 -28.5 15.73 -26.77 12.37 C-20 0.37 -13.07 -0.22 0 0 Z " fill="#FFFFFF" transform="translate(512.6164093017578,673.1953125)"/>
<path d="M0 0 C4.57 1.25 6.95 3.77 10.12 7.08 C12.57 9.59 15.19 11.84 17.84 14.12 C20.2 16.17 22.51 18.27 24.81 20.38 C28.19 23.43 31.63 26.34 35.19 29.19 C41.25 34.09 46.88 39.42 52.55 44.77 C56.29 48.28 60.12 51.65 64 55 C67.3 57.97 70.6 60.94 74 64 C74 73.9 74 83.8 74 94 C122.51 94 171.02 94 221 94 C220.34 101.59 219.68 109.18 219 117 C218.93 121.1 218.9 125 219.12 129.06 C219.18 130.07 219.23 131.09 219.28 132.13 C220.54 153.67 224.22 174.64 229.42 195.55 C230.08 198.35 230.6 201.15 231 204 C223.8 198.07 217.37 191.42 210.83 184.79 C206.26 180.18 201.67 175.71 196.74 171.49 C194.33 169.43 192.02 167.28 189.69 165.12 C184.28 160.2 178.71 155.56 173 151 C172.49 150.59 171.97 150.17 171.44 149.75 C150.74 133.11 129.14 118.23 105 107 C103.84 106.46 102.69 105.91 101.5 105.36 C95.12 102.49 88.77 100.24 82.06 98.32 C80.89 97.99 80.89 97.99 79.7 97.64 C77.8 97.09 75.9 96.54 74 96 C74.06 148.09 74.13 200.17 74.23 252.26 C74.24 258.41 74.25 264.57 74.26 270.72 C74.27 272.56 74.27 272.56 74.27 274.43 C74.3 294.25 74.33 314.07 74.35 333.89 C74.37 354.23 74.41 374.58 74.45 394.92 C74.48 407.47 74.49 420.02 74.5 432.57 C74.5 441.18 74.52 449.79 74.55 458.4 C74.56 463.36 74.57 468.33 74.57 473.29 C74.56 477.85 74.57 482.4 74.59 486.95 C74.6 488.59 74.6 490.23 74.59 491.87 C74.51 520.89 84.28 544.81 104 566 C104.56 566.6 105.12 567.21 105.7 567.83 C113.76 576.42 122.25 583.84 131.83 590.71 C135 593 135 593 137 595 C47.57 595 -41.86 595 -134 595 C-130.95 591.95 -128.36 589.73 -124.88 587.31 C-119.2 583.23 -114.07 578.81 -109 574 C-108.52 573.56 -108.05 573.11 -107.56 572.66 C-90.16 556.38 -73.81 533.21 -72.87 508.59 C-72.87 507.33 -72.86 506.06 -72.86 504.76 C-72.86 503.7 -72.86 503.7 -72.85 502.62 C-72.84 500.24 -72.84 497.86 -72.84 495.49 C-72.84 493.76 -72.83 492.04 -72.83 490.32 C-72.81 485.59 -72.81 480.86 -72.8 476.13 C-72.79 471.03 -72.78 465.93 -72.76 460.83 C-72.74 452 -72.72 443.16 -72.71 434.32 C-72.69 421.55 -72.66 408.77 -72.63 396 C-72.58 375.27 -72.54 354.54 -72.5 333.81 C-72.46 313.68 -72.42 293.54 -72.37 273.4 C-72.37 271.54 -72.37 271.54 -72.36 269.64 C-72.35 263.42 -72.34 257.19 -72.32 250.97 C-72.21 199.31 -72.1 147.66 -72 96 C-74.88 96.79 -77.76 97.58 -80.64 98.37 C-81.45 98.59 -82.26 98.81 -83.1 99.04 C-89.09 100.69 -94.82 102.65 -100.5 105.19 C-101.37 105.57 -102.24 105.95 -103.14 106.35 C-137.36 121.69 -167.74 145.9 -195.05 171.3 C-197.19 173.28 -199.39 175.19 -201.61 177.08 C-207.34 182.08 -212.64 187.54 -218 192.94 C-219.07 194.01 -220.14 195.09 -221.21 196.17 C-223.81 198.77 -226.41 201.39 -229 204 C-229.98 200.91 -229.98 198.97 -229.14 195.86 C-228.94 195.05 -228.73 194.24 -228.51 193.4 C-228.28 192.53 -228.05 191.65 -227.81 190.75 C-222.16 168.13 -218.92 145.02 -218.75 121.69 C-218.74 120.87 -218.73 120.04 -218.72 119.2 C-218.77 110.62 -219.98 102.68 -221 94 C-171.83 94 -122.66 94 -72 94 C-72 84.1 -72 74.2 -72 64 C-66.71 59.24 -61.43 54.49 -56.06 49.81 C-53.69 47.73 -51.34 45.62 -49 43.5 C-45.38 40.24 -41.74 37.01 -38.06 33.81 C-35.69 31.73 -33.34 29.62 -31 27.5 C-27.38 24.24 -23.74 21.01 -20.06 17.81 C-16.84 14.98 -13.66 12.1 -10.48 9.22 C-7.01 6.11 -3.51 3.05 0 0 Z M1 69 C-0.16 70.07 -0.16 70.07 -1.34 71.16 C-7.82 77.12 -14.31 83.05 -21.04 88.72 C-22.71 90.13 -24.36 91.56 -26 93 C-26 93.33 -26 93.66 -26 94 C-7.85 94 10.3 94 29 94 C26.37 90.71 24.51 88.4 21.44 85.81 C17.05 82.07 12.83 78.17 8.61 74.23 C6.18 72.16 3.79 70.55 1 69 Z " fill="#FEFEFE" transform="translate(1601,592)"/>
<path d="M0 0 C92.73 0 185.46 0 281 0 C279.02 4.29 277.04 8.58 275 13 C268.62 32.91 274.41 53.5 283.52 71.46 C289.48 82.68 297.74 92.3 305.78 102.07 C308.72 105.65 311.59 109.28 314.44 112.94 C319.12 118.94 323.95 124.82 328.81 130.68 C332.89 135.63 336.88 140.63 340.82 145.69 C344.46 150.36 348.22 154.94 352 159.5 C356.71 165.19 361.34 170.93 365.89 176.76 C369.37 181.22 372.92 185.62 376.5 190 C380.53 194.94 384.52 199.91 388.44 204.94 C392.54 210.2 396.75 215.36 401 220.5 C410.73 232.25 410.73 232.25 414.78 237.7 C417.09 240.77 419.4 243.43 422.33 245.93 C430.14 253.07 432.89 260.05 433.41 270.58 C433.63 277.68 433.55 284.77 433.42 291.86 C433.36 296.18 433.37 300.49 433.37 304.8 C433.37 312.97 433.3 321.13 433.21 329.29 C433.08 341.24 433.03 353.19 433 365.14 C433 366.02 432.99 366.91 432.99 367.81 C432.99 369.58 432.98 371.34 432.98 373.1 C432.96 378.21 432.92 383.32 432.87 388.43 C432.83 391.62 432.81 394.81 432.79 398 C432.78 399.47 432.76 400.93 432.74 402.4 C432.31 430.02 443.53 453.09 462 473 C462.48 473.52 462.96 474.03 463.45 474.57 C471.9 483.58 481.23 490.95 491.31 498.06 C492.2 498.7 493.09 499.34 494 500 C494 500.33 494 500.66 494 501 C404.9 501 315.8 501 224 501 C227.48 497.52 230.14 495.06 234.06 492.38 C240.55 487.75 246.24 482.48 252 477 C252.95 476.14 252.95 476.14 253.93 475.27 C270.73 459.67 283.55 435.82 285.22 412.99 C285.34 409.72 285.41 406.45 285.45 403.18 C285.47 401.95 285.49 400.71 285.52 399.44 C285.59 395.4 285.64 391.35 285.69 387.3 C285.7 386.61 285.7 385.92 285.71 385.2 C285.78 378.64 285.85 372.08 285.89 365.52 C285.94 357.19 286.05 348.86 286.21 340.54 C286.32 334.64 286.38 328.75 286.4 322.86 C286.41 319.35 286.45 315.85 286.54 312.35 C287.16 293.3 287.16 293.3 278.26 277.1 C276.47 275.23 274.63 273.45 272.74 271.69 C269.99 269.02 267.73 266 265.44 262.94 C264.55 261.8 263.67 260.66 262.78 259.53 C262.33 258.96 261.88 258.38 261.42 257.8 C258.82 254.5 256.16 251.25 253.5 248 C249.47 243.06 245.48 238.09 241.56 233.06 C237.46 227.8 233.25 222.64 229 217.5 C224.29 211.81 219.66 206.07 215.11 200.24 C211.63 195.78 208.08 191.38 204.5 187 C199.99 181.48 195.55 175.91 191.16 170.29 C187.66 165.82 184.09 161.4 180.5 157 C175.99 151.48 171.55 145.91 167.16 140.29 C163.66 135.82 160.09 131.4 156.5 127 C152.45 122.04 148.44 117.05 144.5 112 C136.28 101.49 128.02 91 118.98 81.17 C117.08 79.09 115.26 76.96 113.44 74.81 C109.93 70.8 106.06 67.43 102 64 C101.01 63.13 100.03 62.25 99.01 61.35 C80.15 44.69 58.95 31.05 36.89 19.03 C35.04 18.02 33.21 17 31.38 15.98 C21.19 10.38 10.64 5.66 0 1 C0 0.67 0 0.34 0 0 Z " fill="#FFFFFF" transform="translate(1947,686)"/>
<path d="M0 0 C89.43 0 178.86 0 271 0 C267.52 3.48 264.86 5.94 260.94 8.62 C254.45 13.25 248.76 18.52 243 24 C242.35 24.59 241.71 25.19 241.04 25.8 C224.74 41.22 211.19 64.41 209.81 87.09 C209.74 90.63 209.72 94.18 209.73 97.73 C209.73 99.1 209.72 100.47 209.72 101.84 C209.71 105.58 209.71 109.32 209.71 113.06 C209.71 117.11 209.7 121.15 209.69 125.2 C209.67 133.11 209.67 141.03 209.67 148.95 C209.66 155.38 209.66 161.82 209.65 168.26 C209.64 186.55 209.63 204.83 209.63 223.11 C209.63 224.59 209.63 224.59 209.63 226.09 C209.63 227.57 209.63 227.57 209.63 229.08 C209.63 245.04 209.61 261.01 209.58 276.97 C209.55 293.39 209.54 309.8 209.54 326.22 C209.54 335.43 209.54 344.63 209.52 353.84 C209.5 361.68 209.49 369.52 209.51 377.36 C209.51 381.35 209.51 385.35 209.5 389.34 C209.06 416.74 209.06 416.74 217.81 442.38 C218.16 443.03 218.5 443.68 218.86 444.36 C230.41 465.87 246.55 482.81 266.41 496.78 C268 498 268 498 271 501 C181.57 501 92.14 501 0 501 C3.65 498.08 7.33 495.25 11.06 492.44 C34.97 474.17 56.72 449.37 61.52 418.67 C62.25 412.7 62.14 406.73 62.14 400.73 C62.14 399.39 62.15 398.04 62.15 396.7 C62.16 393.02 62.16 389.34 62.16 385.66 C62.16 381.69 62.17 377.71 62.18 373.74 C62.19 365.05 62.2 356.37 62.2 347.68 C62.2 342.26 62.21 336.83 62.21 331.4 C62.22 316.36 62.23 301.31 62.24 286.27 C62.24 285.3 62.24 284.34 62.24 283.35 C62.24 281.9 62.24 281.9 62.24 280.43 C62.24 278.47 62.24 276.52 62.24 274.57 C62.24 273.11 62.24 273.11 62.24 271.63 C62.24 255.94 62.26 240.24 62.29 224.55 C62.31 208.42 62.32 192.29 62.32 176.15 C62.32 167.1 62.33 158.06 62.35 149.01 C62.36 141.3 62.37 133.59 62.36 125.88 C62.36 121.96 62.36 118.03 62.37 114.1 C62.48 81.71 57.64 57.22 36 32 C35.29 31.17 34.58 30.33 33.85 29.48 C25.39 19.81 16.09 12.14 5.54 4.9 C4.82 4.41 4.1 3.91 3.37 3.41 C2.39 2.75 2.39 2.75 1.4 2.07 C0.94 1.72 0.48 1.36 0 1 C0 0.67 0 0.34 0 0 Z " fill="#FFFFFF" transform="translate(1027,686)"/>
<path d="M0 0 C58.41 0 116.82 0 177 0 C173.98 2.26 171.72 3.74 168.39 5.28 C167.48 5.7 166.57 6.13 165.64 6.56 C164.67 7.02 163.69 7.47 162.69 7.94 C143.76 16.89 125.44 26.39 108 38 C107.29 38.47 106.57 38.95 105.84 39.43 C96.61 45.6 87.71 52.12 79 59 C78.15 59.67 77.3 60.33 76.43 61.02 C66.75 68.67 57.37 76.67 48.24 84.97 C46.29 86.74 44.31 88.47 42.31 90.19 C29.53 101.36 17.52 113.34 5.56 125.38 C4.04 126.9 2.52 128.43 1 129.95 C-2.67 133.63 -6.34 137.32 -10 141 C-11 138 -11 138 -10.26 135.96 C-9.86 135.18 -9.46 134.4 -9.04 133.59 C-8.59 132.7 -8.15 131.8 -7.68 130.88 C-6.94 129.42 -6.94 129.42 -6.19 127.94 C8.29 98.5 25.61 59.48 14.88 26.19 C11.9 18.02 7.67 11.05 2.06 4.44 C0 2 0 2 0 0 Z " fill="#FFFFFF" transform="translate(2426,686)"/>
<path d="M0 0 C9.72 8.21 16.35 18.15 19.71 30.49 C19.71 31.48 19.71 32.47 19.71 33.49 C13.44 33.49 7.17 33.49 0.71 33.49 C-0.14 31.84 -0.98 30.19 -1.86 28.49 C-8.32 16.77 -16.85 9.48 -29.61 5.05 C-41.44 1.8 -54.18 2.42 -65.24 7.96 C-76.48 14.68 -82 22.82 -85.84 35.27 C-86.42 38.13 -86.44 40.83 -86.45 43.75 C-86.46 45.02 -86.47 46.29 -86.48 47.6 C-86.49 48.98 -86.49 50.36 -86.5 51.75 C-86.5 52.45 -86.5 53.15 -86.5 53.87 C-86.52 57.58 -86.53 61.3 -86.53 65.01 C-86.54 68.82 -86.56 72.64 -86.59 76.45 C-86.61 79.4 -86.62 82.35 -86.62 85.3 C-86.62 86.71 -86.63 88.11 -86.64 89.52 C-86.76 103.01 -84.65 114.58 -75.18 124.75 C-64.71 134.5 -53.6 137.13 -39.62 136.8 C-30.44 136.32 -22.55 133.31 -15.2 127.86 C-13.29 126.49 -13.29 126.49 -11.17 125.56 C-8.79 124.2 -8.36 122.98 -7.29 120.49 C-6.09 118.53 -4.85 116.61 -3.61 114.68 C-2.02 112.04 -0.67 109.25 0.71 106.49 C6.98 106.49 13.25 106.49 19.71 106.49 C16.19 122.33 8.88 134.34 -4.73 143.43 C-22.51 153.81 -43.39 156.84 -63.48 151.86 C-78.42 147.11 -90.86 138.98 -99.29 125.49 C-105.37 113.42 -106.61 102.23 -106.59 88.94 C-106.6 87.43 -106.6 85.93 -106.61 84.42 C-106.61 81.28 -106.61 78.13 -106.61 74.99 C-106.6 70.99 -106.62 66.99 -106.64 63 C-106.66 59.89 -106.66 56.78 -106.66 53.68 C-106.66 52.2 -106.66 50.73 -106.67 49.26 C-106.78 31.17 -102.52 16.06 -89.73 2.7 C-65.96 -18.86 -25.18 -19.95 0 0 Z " fill="#70D8BD" transform="translate(603.29296875,1210.51171875)"/>
<path d="M0 0 C10.18 8.13 15.26 18.29 17.47 30.97 C17.73 34.06 17.77 37.12 17.77 40.21 C17.77 41.06 17.78 41.91 17.78 42.79 C17.79 44.57 17.79 46.35 17.78 48.14 C17.78 50.83 17.8 53.53 17.83 56.23 C17.89 71.91 15.6 86.24 4.47 98.16 C-10.13 111.37 -28.95 111.87 -47.53 110.97 C-59.7 109.83 -71.31 104.04 -79.53 94.97 C-89.12 82.38 -90.17 68.86 -90 53.65 C-89.97 50.85 -89.98 48.04 -89.99 45.23 C-89.98 36.12 -89.86 27.59 -86.53 18.97 C-86.25 18.25 -85.97 17.53 -85.68 16.78 C-81.05 5.64 -71.39 -1.52 -60.73 -6.28 C-41.85 -13.04 -16.61 -11.5 0 0 Z M-62.81 15.91 C-68.95 23.27 -70.68 30.99 -70.77 40.32 C-70.78 41.14 -70.79 41.95 -70.79 42.79 C-70.81 44.51 -70.82 46.24 -70.83 47.96 C-70.84 49.71 -70.86 51.46 -70.89 53.2 C-71.25 67.09 -71.25 67.09 -66.53 79.97 C-66.11 80.72 -65.68 81.46 -65.24 82.23 C-61.11 89.03 -53.98 92.1 -46.67 94.61 C-35.59 96.48 -23.72 95.86 -14.26 89.43 C-7.36 83.84 -3.65 77.55 -1.53 68.97 C-1.34 66.2 -1.23 63.53 -1.23 60.77 C-1.22 59.62 -1.22 59.62 -1.22 58.45 C-1.21 56.84 -1.21 55.22 -1.22 53.61 C-1.22 51.18 -1.2 48.74 -1.17 46.31 C-1.12 34.74 -1.8 25.16 -9.5 15.95 C-17.6 8.05 -27.46 6.56 -38.27 6.61 C-47.95 6.82 -55.68 9.13 -62.81 15.91 Z " fill="#70D8BD" transform="translate(2272.53125,1253.02734375)"/>
<path d="M0 0 C9.78 7.81 15.13 17.72 17.47 29.97 C17.75 33.15 17.8 36.3 17.8 39.48 C17.81 40.82 17.81 40.82 17.82 42.18 C17.83 44.06 17.84 45.93 17.84 47.81 C17.84 50.64 17.88 53.46 17.92 56.29 C18.01 71.58 16.08 85.23 5.54 97.16 C-5.93 108.26 -20.41 111.38 -35.84 111.29 C-36.85 111.28 -37.86 111.27 -38.9 111.27 C-53.77 111.03 -66.61 107.31 -77.75 96.95 C-86.62 87.11 -89.67 75.05 -89.73 62.16 C-89.74 61.3 -89.75 60.45 -89.75 59.57 C-89.76 57.77 -89.77 55.97 -89.77 54.16 C-89.78 51.44 -89.81 48.72 -89.84 46 C-89.94 30.52 -88.33 16.04 -77.28 4.16 C-57.53 -13.83 -21.75 -15.07 0 0 Z M-63.53 16.97 C-71.06 26.39 -71.04 36.42 -70.98 47.86 C-70.97 50.34 -71 52.81 -71.03 55.29 C-71.08 66.21 -70.12 76.45 -63.14 85.41 C-54.94 93.37 -45 95.38 -34.03 95.34 C-27.62 95.19 -22.26 93.93 -16.53 90.97 C-15.54 90.46 -15.54 90.46 -14.52 89.95 C-7.06 85.4 -3.53 77.15 -1.53 68.97 C-1.25 66.17 -1.2 63.39 -1.2 60.58 C-1.19 59.8 -1.18 59.01 -1.18 58.2 C-1.17 56.55 -1.16 54.89 -1.16 53.24 C-1.16 50.74 -1.12 48.25 -1.08 45.75 C-1 33.98 -1.96 23.64 -10.46 14.7 C-24.83 2.72 -50.72 2.96 -63.53 16.97 Z " fill="#70D8BD" transform="translate(792.53125,1253.02734375)"/>
<path d="M0 0 C9.87 8.21 14.99 18.48 16.62 31.19 C16.98 37.41 16.86 43.65 16.82 49.88 C16.82 51.68 16.81 53.49 16.81 55.29 C16.8 60 16.78 64.71 16.76 69.42 C16.74 74.24 16.73 79.06 16.72 83.88 C16.7 93.32 16.67 102.75 16.62 112.19 C10.36 112.19 4.09 112.19 -2.38 112.19 C-2.39 109.88 -2.4 107.57 -2.42 105.19 C-2.47 97.52 -2.54 89.86 -2.61 82.2 C-2.66 77.55 -2.69 72.91 -2.72 68.27 C-2.75 63.78 -2.79 59.29 -2.84 54.81 C-2.85 53.1 -2.87 51.4 -2.87 49.69 C-2.92 37.15 -3.09 26.58 -12.18 17.1 C-21.38 9.07 -32.46 9.57 -44.02 10 C-49.61 10.45 -54.11 12.44 -58.5 15.82 C-60.38 17.19 -60.38 17.19 -62.38 17.19 C-68.15 28.57 -68.98 38.21 -68.98 50.76 C-69 52.54 -69.02 54.32 -69.03 56.1 C-69.08 60.74 -69.1 65.38 -69.11 70.03 C-69.13 74.78 -69.17 79.53 -69.21 84.29 C-69.29 93.59 -69.34 102.89 -69.38 112.19 C-75.64 112.19 -81.91 112.19 -88.38 112.19 C-88.38 73.25 -88.38 34.31 -88.38 -5.81 C-82.11 -5.81 -75.84 -5.81 -69.38 -5.81 C-69.05 -1.52 -68.72 2.77 -68.38 7.19 C-67.28 6.14 -66.19 5.08 -65.06 4 C-48.8 -10.19 -17.77 -12.32 0 0 Z " fill="#70D8BD" transform="translate(2464.375,1250.8125)"/>
<path d="M0 0 C9.79 8.11 14.52 17.72 16.62 30.19 C17.13 36.54 16.98 42.93 16.92 49.3 C16.91 51.12 16.91 52.94 16.91 54.76 C16.89 59.52 16.86 64.27 16.83 69.02 C16.8 73.89 16.79 78.76 16.77 83.62 C16.74 93.15 16.69 102.67 16.62 112.19 C10.36 112.19 4.09 112.19 -2.38 112.19 C-2.38 109.85 -2.39 107.52 -2.4 105.11 C-2.44 97.36 -2.49 89.61 -2.56 81.86 C-2.6 77.16 -2.63 72.47 -2.65 67.77 C-2.66 63.23 -2.7 58.69 -2.74 54.15 C-2.76 52.43 -2.77 50.71 -2.77 48.98 C-2.78 38.06 -3.39 28.98 -9.06 19.31 C-18.27 10.85 -28.71 9.62 -40.66 9.88 C-49.51 10.3 -56.37 13.19 -62.79 19.33 C-68.28 25.75 -68.51 33.93 -68.58 42.03 C-68.6 43.17 -68.6 43.17 -68.61 44.34 C-68.64 46.84 -68.67 49.34 -68.69 51.84 C-68.71 53.58 -68.73 55.32 -68.75 57.06 C-68.81 61.62 -68.86 66.19 -68.91 70.76 C-68.96 75.42 -69.01 80.09 -69.07 84.75 C-69.18 93.9 -69.28 103.04 -69.38 112.19 C-75.64 112.19 -81.91 112.19 -88.38 112.19 C-88.38 73.25 -88.38 34.31 -88.38 -5.81 C-82.11 -5.81 -75.84 -5.81 -69.38 -5.81 C-68.88 1.12 -68.88 1.12 -68.38 8.19 C-67.74 7.49 -67.1 6.79 -66.44 6.06 C-50.22 -9.84 -18.85 -13.07 0 0 Z " fill="#70D8BD" transform="translate(984.375,1250.8125)"/>
<path d="M0 0 C6.27 0 12.54 0 19 0 C19.01 2.37 19.02 4.74 19.03 7.19 C19.06 15.05 19.12 22.91 19.18 30.77 C19.22 35.54 19.26 40.3 19.27 45.07 C19.29 49.67 19.32 54.27 19.37 58.88 C19.38 60.63 19.39 62.38 19.39 64.13 C19.4 75.2 19.99 83.74 26.12 93.31 C34.95 101.56 45.14 102.48 56.69 102.27 C64.95 101.91 72.32 99.07 78.22 93.15 C85.58 84.27 84.6 72.28 84.61 61.43 C84.62 59.65 84.64 57.87 84.66 56.09 C84.7 51.45 84.72 46.8 84.74 42.16 C84.76 37.41 84.8 32.65 84.84 27.9 C84.91 18.6 84.96 9.3 85 0 C91.27 0 97.54 0 104 0 C104 38.94 104 77.88 104 118 C97.73 118 91.46 118 85 118 C84.67 113.71 84.34 109.42 84 105 C83.09 105.87 82.18 106.73 81.25 107.62 C70.61 116.71 58.66 119.36 45.06 119.31 C44.14 119.33 43.21 119.34 42.26 119.36 C30.84 119.37 20.55 115.92 11.99 108.18 C3.04 98.59 -0.35 87.24 -0.23 74.36 C-0.23 73.55 -0.23 72.74 -0.23 71.9 C-0.23 69.26 -0.21 66.61 -0.2 63.96 C-0.19 62.12 -0.19 60.27 -0.19 58.42 C-0.18 53.58 -0.16 48.74 -0.14 43.91 C-0.12 38.96 -0.11 34.01 -0.1 29.06 C-0.08 19.38 -0.04 9.69 0 0 Z " fill="#70D8BD" transform="translate(1567,1245)"/>
<path d="M0 0 C-1.42 3.09 -3.1 5.67 -5.25 8.31 C-5.81 9.03 -6.37 9.75 -6.95 10.49 C-9 12 -9 12 -11.87 11.88 C-14.99 11 -17.84 9.91 -20.81 8.62 C-36.86 2.35 -54.2 0.71 -70.57 6.9 C-74.85 8.84 -77.2 10.82 -79.81 14.69 C-81.52 19.46 -81.99 24.27 -80.24 29.11 C-77.11 33.88 -71.03 35.58 -65.7 36.69 C-58.24 37.69 -50.75 38.16 -43.25 38.69 C-10.92 41 -10.92 41 -1.06 51.94 C5.05 61.02 5.36 70.35 4 81 C1.18 91.01 -4.73 96.42 -13.5 101.43 C-34.25 111.88 -61.94 110.45 -83.65 103.9 C-101.29 98.06 -101.29 98.06 -106 91 C-105.29 90.31 -105.29 90.31 -104.57 89.61 C-99.97 85.08 -99.97 85.08 -96 80 C-92.75 80.6 -90.02 81.91 -87.08 83.37 C-69.59 92.04 -49.54 95.79 -30.38 90.25 C-23.77 87.75 -19.11 84.93 -15 79 C-13.41 74.23 -13.2 69.85 -15.19 65.25 C-21.2 57.78 -29.21 56.5 -38.43 55.45 C-44.28 54.85 -50.15 54.34 -56.02 53.85 C-84.47 51.42 -84.47 51.42 -94 42 C-99.24 35.65 -100.46 28.6 -100.25 20.58 C-99.39 11.56 -95.99 4.13 -88.96 -1.69 C-64.05 -19.29 -25.02 -15.53 0 0 Z " fill="#70D8BD" transform="translate(1186,1256)"/>
<path d="M0 0 C0.3 8.79 0.53 17.58 0.67 26.37 C0.74 30.45 0.83 34.53 0.98 38.61 C1.99 67.24 1.99 67.24 -2.82 73.76 C-5.85 76.91 -9.17 78.93 -13 81 C-14.31 82.11 -15.59 83.24 -16.81 84.44 C-19.36 86.65 -21.96 88.78 -24.59 90.89 C-31.75 96.64 -38.73 102.46 -45.41 108.76 C-49.52 112.61 -53.82 116.17 -58.21 119.69 C-62.01 122.84 -65.61 126.17 -69.21 129.55 C-72.9 133 -72.9 133 -74 133 C-74.23 124.16 -74.41 115.32 -74.52 106.48 C-74.57 102.37 -74.64 98.26 -74.75 94.16 C-74.86 90.19 -74.92 86.22 -74.95 82.25 C-74.97 80.75 -75 79.24 -75.06 77.73 C-75.46 65.95 -75.46 65.95 -71.85 61.13 C-69.34 58.85 -66.79 56.92 -64 55 C-62.65 53.85 -61.31 52.69 -60 51.5 C-59.36 50.94 -58.72 50.39 -58.06 49.81 C-55.69 47.73 -53.34 45.62 -51 43.5 C-47.38 40.24 -43.74 37.01 -40.06 33.81 C-37.69 31.73 -35.34 29.62 -33 27.5 C-29.38 24.24 -25.74 21.01 -22.06 17.81 C-19.69 15.73 -17.34 13.62 -15 11.5 C-14.16 10.75 -13.33 10 -12.47 9.22 C-10.86 7.78 -9.26 6.33 -7.66 4.87 C-6.59 3.91 -6.59 3.91 -5.5 2.94 C-4.56 2.08 -4.56 2.08 -3.59 1.21 C-2 0 -2 0 0 0 Z " fill="#71D8BD" transform="translate(1603,592)"/>
<path d="M0 0 C1.28 0.01 2.55 0.01 3.87 0.02 C21.84 0.33 34.66 5.03 47.69 17.44 C47.57 19.14 47.57 19.14 46.69 21.44 C44.69 23.17 42.77 24.68 40.62 26.19 C40.06 26.6 39.49 27.01 38.9 27.43 C37.51 28.44 36.1 29.44 34.69 30.44 C34.03 29.89 34.03 29.89 33.36 29.34 C19.48 18.33 6.9 16.25 -10.31 17.44 C-18.37 18.82 -25.1 22.01 -30.31 28.44 C-34.34 35.39 -35.48 41.8 -35.55 49.75 C-35.56 50.57 -35.57 51.38 -35.58 52.21 C-35.59 53.93 -35.6 55.65 -35.61 57.37 C-35.62 59.11 -35.64 60.85 -35.67 62.59 C-35.87 74.18 -35.55 83.71 -29.19 93.81 C-19.48 102.67 -7.43 104.03 5.14 103.75 C15.79 103.22 27.04 99.09 34.69 91.44 C38.56 91.69 40.68 93.95 43.44 96.5 C44.24 97.23 45.04 97.97 45.86 98.72 C46.76 99.57 46.76 99.57 47.69 100.44 C46.8 105.89 42.97 108.34 38.69 111.44 C21.24 122.12 -0.38 123.02 -20.19 119.31 C-32.21 116.15 -42.2 110.53 -48.93 99.98 C-53.86 90.95 -55.47 82.13 -55.55 72 C-55.56 71.08 -55.57 70.17 -55.58 69.22 C-55.59 67.28 -55.6 65.34 -55.61 63.4 C-55.62 61.44 -55.64 59.48 -55.67 57.52 C-55.92 41.19 -54.96 26.28 -43.54 13.44 C-31.81 2.29 -15.54 -0.13 0 0 Z " fill="#70D8BD" transform="translate(1811.3125,1243.5625)"/>
<path d="M0 0 C6.27 0 12.54 0 19 0 C19 11.22 19 22.44 19 34 C27.91 34 36.82 34 46 34 C46 38.95 46 43.9 46 49 C37.09 49 28.18 49 19 49 C19.04 59.07 19.1 69.13 19.18 79.2 C19.22 83.87 19.26 88.55 19.27 93.22 C19.29 97.74 19.32 102.25 19.37 106.76 C19.38 108.48 19.39 110.2 19.39 111.92 C19.39 114.33 19.42 116.75 19.45 119.16 C19.45 119.87 19.44 120.57 19.44 121.3 C19.54 126.29 20.89 129.14 24 133 C26.75 134.88 29.03 135.27 32.33 135.41 C33.53 135.47 33.53 135.47 34.75 135.53 C35.58 135.56 36.4 135.59 37.25 135.62 C38.51 135.68 38.51 135.68 39.8 135.74 C41.86 135.84 43.93 135.92 46 136 C46 141.28 46 146.56 46 152 C42.21 152.08 38.42 152.14 34.62 152.19 C33.56 152.21 32.5 152.24 31.41 152.26 C22.11 152.35 13.48 151.37 6.47 144.75 C0.96 138.2 -0.15 131.34 -0.11 123.02 C-0.11 122.22 -0.11 121.42 -0.11 120.59 C-0.11 117.95 -0.11 115.31 -0.1 112.67 C-0.1 110.84 -0.09 109.01 -0.09 107.17 C-0.09 102.35 -0.08 97.53 -0.07 92.71 C-0.06 87.79 -0.05 82.87 -0.05 77.95 C-0.04 68.3 -0.02 58.65 0 49 C-4.62 49 -9.24 49 -14 49 C-14 44.05 -14 39.1 -14 34 C-9.38 34 -4.76 34 0 34 C0 22.78 0 11.56 0 0 Z " fill="#70D8BD" transform="translate(1941,1211)"/>
<path d="M0 0 C6.27 0 12.54 0 19 0 C19 11.22 19 22.44 19 34 C27.91 34 36.82 34 46 34 C46 38.95 46 43.9 46 49 C37.09 49 28.18 49 19 49 C19.04 58.77 19.1 68.54 19.18 78.31 C19.22 82.85 19.26 87.39 19.27 91.93 C19.29 96.31 19.32 100.69 19.37 105.08 C19.38 106.74 19.39 108.41 19.39 110.08 C19.22 122.16 19.22 122.16 24 133 C28.05 135.69 33.07 135.43 37.81 135.62 C38.99 135.68 38.99 135.68 40.2 135.74 C42.13 135.84 44.07 135.92 46 136 C46 141.28 46 146.56 46 152 C42.23 152.11 38.46 152.19 34.69 152.25 C33.63 152.28 32.58 152.32 31.5 152.35 C23.38 152.45 15.16 151.61 8.79 146.09 C1.4 138.25 -0.17 129.69 -0.11 119.16 C-0.11 118.4 -0.11 117.64 -0.11 116.85 C-0.11 114.35 -0.11 111.85 -0.1 109.35 C-0.1 107.61 -0.09 105.87 -0.09 104.13 C-0.09 99.56 -0.08 95 -0.07 90.43 C-0.06 85.76 -0.05 81.1 -0.05 76.43 C-0.04 67.29 -0.02 58.14 0 49 C-4.29 49 -8.58 49 -13 49 C-13 44.05 -13 39.1 -13 34 C-8.71 34 -4.42 34 0 34 C0 22.78 0 11.56 0 0 Z " fill="#70D8BD" transform="translate(1276,1211)"/>
<path d="M0 0 C1.02 0 2.05 0 3.11 0 C10.28 0.12 16.4 0.81 22.75 4.38 C23.73 4.9 23.73 4.9 24.73 5.43 C26.44 6.44 26.44 6.44 28.75 8.38 C28.75 12.71 26.09 14.6 23.25 17.56 C22.73 18.12 22.2 18.68 21.66 19.26 C20.36 20.64 19.06 22.01 17.75 23.38 C17.18 23.09 16.62 22.8 16.04 22.51 C14.9 21.95 14.9 21.95 13.75 21.38 C13.05 21.02 12.34 20.67 11.62 20.3 C1.31 15.84 -11.72 15.49 -22.44 18.94 C-28.96 21.85 -34.42 25.82 -37.43 32.45 C-40.41 40.34 -39.86 48.75 -39.86 57.07 C-39.87 58.87 -39.89 60.67 -39.91 62.48 C-39.95 67.19 -39.97 71.9 -39.99 76.61 C-40.01 81.43 -40.05 86.25 -40.09 91.07 C-40.16 100.51 -40.21 109.94 -40.25 119.38 C-46.52 119.38 -52.79 119.38 -59.25 119.38 C-59.25 80.43 -59.25 41.49 -59.25 1.38 C-52.98 1.38 -46.71 1.38 -40.25 1.38 C-39.76 8.31 -39.76 8.31 -39.25 15.38 C-38.2 14.34 -37.15 13.31 -36.06 12.25 C-25.88 3.32 -13.24 -0.02 0 0 Z " fill="#70D8BD" transform="translate(1466.25,1243.625)"/>
<path d="M0 0 C18.48 0 36.96 0 56 0 C56 19.47 56 38.94 56 59 C37.52 59 19.04 59 0 59 C0 39.53 0 20.06 0 0 Z " fill="#70D8BD" transform="translate(790,1041)"/>
<path d="M0 0 C18.48 0 36.96 0 56 0 C56 19.47 56 38.94 56 59 C37.52 59 19.04 59 0 59 C0 39.53 0 20.06 0 0 Z " fill="#70D8BD" transform="translate(706,1041)"/>
<path d="M0 0 C18.48 0 36.96 0 56 0 C56 19.47 56 38.94 56 59 C37.52 59 19.04 59 0 59 C0 39.53 0 20.06 0 0 Z " fill="#70D8BD" transform="translate(790,965)"/>
<path d="M0 0 C18.48 0 36.96 0 56 0 C56 19.47 56 38.94 56 59 C37.52 59 19.04 59 0 59 C0 39.53 0 20.06 0 0 Z " fill="#70D8BD" transform="translate(706,965)"/>
<path d="M0 0 C6.27 0 12.54 0 19 0 C19 38.94 19 77.88 19 118 C12.73 118 6.46 118 0 118 C0 79.06 0 40.12 0 0 Z " fill="#70D8BD" transform="translate(2075,1245)"/>
<path d="M0 0 C6.27 0 12.54 0 19 0 C19 5.61 19 11.22 19 17 C12.73 17 6.46 17 0 17 C0 11.39 0 5.78 0 0 Z " fill="#70D8BD" transform="translate(2075,1199)"/>
</svg>
