<?xml version="1.0" encoding="UTF-8"?>
<!-- Generator: visioncortex VTracer 0.6.3 -->
<svg version="1.1" xmlns="http://www.w3.org/2000/svg" width="10815" height="3663">
<path d="M0 0 C1.35 -0.01 2.69 -0.02 4.04 -0.04 C7.76 -0.07 11.48 -0.05 15.2 -0.03 C19.25 -0.01 23.31 -0.04 27.36 -0.06 C34.5 -0.1 41.64 -0.1 48.78 -0.09 C59.47 -0.06 70.16 -0.09 80.85 -0.12 C99.06 -0.17 117.28 -0.19 135.49 -0.18 C153.96 -0.18 172.42 -0.19 190.89 -0.22 C192.64 -0.22 192.64 -0.22 194.42 -0.23 C199.17 -0.23 203.91 -0.24 208.66 -0.25 C258.19 -0.34 307.73 -0.37 357.27 -0.39 C361.94 -0.39 366.61 -0.39 371.27 -0.39 C372.61 -0.39 373.95 -0.39 375.28 -0.39 C404.6 -0.4 433.92 -0.42 463.24 -0.44 C475.3 -0.45 487.36 -0.46 499.42 -0.47 C500.76 -0.47 502.11 -0.47 503.46 -0.47 C535.53 -0.5 567.6 -0.52 599.68 -0.54 C600.36 -0.54 601.05 -0.54 601.75 -0.54 C645.36 -0.56 688.96 -0.57 732.57 -0.58 C735.43 -0.58 738.29 -0.58 741.15 -0.58 C754.06 -0.58 766.97 -0.58 779.88 -0.58 C785.64 -0.58 791.4 -0.58 797.16 -0.58 C800.76 -0.58 804.36 -0.58 807.97 -0.58 C876.02 -0.58 944.08 -0.6 1012.14 -0.69 C1012.85 -0.69 1013.57 -0.69 1014.31 -0.69 C1036.69 -0.72 1059.08 -0.75 1081.46 -0.78 C1104.43 -0.82 1127.4 -0.85 1150.37 -0.88 C1151.08 -0.88 1151.79 -0.88 1152.51 -0.88 C1196.8 -0.94 1241.09 -0.98 1285.38 -0.99 C1286.07 -0.99 1286.75 -0.99 1287.46 -0.99 C1317.5 -1 1347.54 -1.01 1377.58 -1 C1389.66 -1 1401.75 -1 1413.83 -1 C1415.84 -1 1417.84 -1.01 1419.84 -1.01 C1450.5 -1.01 1481.15 -1.02 1511.8 -1.07 C1512.46 -1.08 1513.12 -1.08 1513.8 -1.08 C1525.1 -1.1 1536.39 -1.12 1547.69 -1.14 C1590.6 -1.22 1633.52 -1.25 1676.43 -1.19 C1682.36 -1.18 1688.28 -1.17 1694.21 -1.17 C1695.95 -1.17 1695.95 -1.17 1697.73 -1.16 C1716.15 -1.14 1734.56 -1.19 1752.98 -1.25 C1771.07 -1.31 1789.17 -1.31 1807.27 -1.25 C1817.88 -1.21 1828.5 -1.22 1839.12 -1.3 C1846.16 -1.35 1853.21 -1.34 1860.26 -1.27 C1864.26 -1.23 1868.25 -1.22 1872.25 -1.29 C1895.21 -1.68 1895.21 -1.68 1901.52 2.8 C1905.67 6.97 1908.47 11.63 1910.98 16.92 C1912.34 19.68 1914.07 22.09 1915.92 24.55 C1916.97 26.06 1918.02 27.57 1919.07 29.08 C1920.25 30.76 1921.42 32.45 1922.6 34.13 C1923.17 34.95 1923.74 35.77 1924.33 36.61 C1926.92 40.32 1929.53 44.01 1932.13 47.7 C1932.87 48.74 1932.87 48.74 1933.61 49.79 C1934.59 51.17 1935.57 52.56 1936.54 53.94 C1939.03 57.46 1941.52 60.99 1944.01 64.51 C1945.01 65.93 1946.01 67.35 1947.01 68.76 C1981.01 116.93 2015.01 165.1 2049.01 213.26 C2049.75 214.32 2049.75 214.32 2050.51 215.39 C2051.51 216.8 2052.5 218.21 2053.5 219.62 C2056.59 224 2059.68 228.37 2062.77 232.75 C2063.79 234.2 2064.81 235.65 2065.83 237.11 C2067.97 240.15 2070.12 243.16 2072.35 246.13 C2073 247 2073.65 247.87 2074.32 248.76 C2074.88 249.48 2075.43 250.2 2076 250.94 C2077.01 253.01 2077.01 253.01 2076.97 255.37 C2075.68 258.91 2073.61 261.63 2071.32 264.58 C2070.32 265.91 2069.31 267.25 2068.31 268.59 C2067.77 269.3 2067.24 270.02 2066.68 270.75 C2063.73 274.74 2060.91 278.82 2058.07 282.89 C2056.88 284.6 2055.68 286.31 2054.49 288.03 C2053.91 288.86 2053.32 289.7 2052.72 290.56 C2050.12 294.28 2047.51 297.99 2044.88 301.7 C2044.15 302.74 2044.15 302.74 2043.41 303.79 C2042.43 305.17 2041.45 306.56 2040.48 307.94 C2037.99 311.46 2035.5 314.99 2033.01 318.51 C2032.01 319.93 2031.01 321.35 2030.01 322.76 C2029.51 323.47 2029.02 324.17 2028.51 324.89 C1979.01 395.01 1929.51 465.14 1724.01 756.26 C1723.51 756.97 1723.02 757.67 1722.51 758.39 C1721.52 759.8 1720.52 761.21 1719.53 762.61 C1716.92 766.31 1714.31 770.01 1711.73 773.72 C1711.19 774.49 1710.65 775.26 1710.1 776.06 C1709.07 777.53 1708.04 779.01 1707.02 780.48 C1706.55 781.15 1706.08 781.82 1705.6 782.5 C1705.2 783.09 1704.79 783.67 1704.38 784.27 C1703.92 784.85 1703.47 785.42 1703.01 786.01 C1702.52 786.67 1702.03 787.33 1701.52 788.01 C1697.8 790.98 1694.08 791.17 1689.44 791.78 C1688.45 791.92 1687.47 792.06 1686.45 792.21 C1683.12 792.68 1679.79 793.13 1676.46 793.58 C1674.06 793.92 1671.66 794.26 1669.26 794.6 C1664.02 795.34 1658.79 796.06 1653.55 796.78 C1645.77 797.85 1637.99 798.94 1630.22 800.03 C1617.13 801.86 1604.04 803.69 1590.96 805.5 C1572.17 808.1 1553.38 810.72 1534.6 813.35 C1527.06 814.4 1519.52 815.46 1511.97 816.51 C1511.14 816.63 1510.3 816.75 1509.44 816.87 C1496.54 818.67 1483.64 820.47 1470.74 822.26 C1423.94 828.78 1377.15 835.34 1330.37 841.94 C1327.92 842.29 1325.46 842.63 1323.01 842.98 C1308.51 845.03 1294 847.07 1279.5 849.12 C1278.72 849.23 1277.93 849.34 1277.13 849.45 C1275.96 849.62 1275.96 849.62 1274.76 849.79 C1255.1 852.56 1235.43 855.34 1215.76 858.11 C1215.04 858.21 1214.32 858.31 1213.58 858.41 C1197.44 860.69 1181.29 862.96 1165.14 865.24 C1163.78 865.43 1162.43 865.62 1161.08 865.81 C1159.73 866 1158.38 866.19 1157.03 866.38 C1156.03 866.52 1156.03 866.52 1155.01 866.66 C1151.67 867.13 1148.33 867.6 1144.99 868.07 C1128.67 870.37 1112.35 872.67 1096.03 874.98 C1085.19 876.51 1074.34 878.04 1063.5 879.57 C1055.94 880.64 1048.37 881.71 1040.81 882.78 C1036.22 883.43 1031.62 884.08 1027.02 884.73 C1024.9 885.03 1022.79 885.33 1020.67 885.63 C1017.79 886.04 1014.9 886.44 1012.02 886.85 C1011.19 886.97 1010.36 887.09 1009.5 887.21 C1005.3 887.79 1001.26 888.14 997.01 888.01 C1000.36 885.21 1003.7 882.93 1007.53 880.83 C1008.6 880.24 1009.67 879.65 1010.78 879.04 C1011.93 878.41 1013.08 877.79 1014.26 877.14 C1015.47 876.47 1016.68 875.81 1017.89 875.14 C1019.76 874.11 1021.63 873.08 1023.49 872.05 C1029.56 868.72 1035.6 865.34 1041.63 861.95 C1043.7 860.8 1045.76 859.64 1047.82 858.48 C1049.35 857.63 1049.35 857.63 1050.91 856.75 C1054.05 854.99 1057.18 853.24 1060.32 851.48 C1070.4 845.85 1080.46 840.2 1090.51 834.51 C1103.71 827.05 1116.94 819.64 1130.18 812.24 C1141.3 806.02 1152.42 799.79 1163.51 793.51 C1176.71 786.05 1189.94 778.64 1203.18 771.24 C1214.3 765.02 1225.42 758.79 1236.51 752.51 C1249.71 745.05 1262.94 737.64 1276.18 730.24 C1288.24 723.49 1300.3 716.73 1312.33 709.92 C1320.5 705.29 1328.69 700.7 1336.88 696.12 C1338.85 695.02 1340.81 693.9 1342.75 692.77 C1345.19 691.45 1347.44 690.42 1350 689.42 C1357.93 686.08 1362.48 682.56 1365.87 674.49 C1367.82 669.18 1369.49 663.8 1371.13 658.39 C1371.91 656 1372.7 653.6 1373.49 651.21 C1374.95 646.78 1376.39 642.35 1377.81 637.91 C1380.57 629.26 1383.5 620.68 1386.51 612.12 C1386.74 611.47 1386.97 610.81 1387.21 610.13 C1388.38 606.8 1389.55 603.47 1390.73 600.14 C1392.14 596.13 1393.55 592.11 1394.95 588.09 C1395.18 587.43 1395.41 586.77 1395.64 586.09 C1396.11 584.76 1396.57 583.44 1397.03 582.11 C1402.25 567.13 1407.55 552.17 1412.86 537.22 C1418.51 521.32 1424.06 505.39 1429.57 489.44 C1435.17 473.27 1440.84 457.14 1446.57 441.02 C1451.95 425.88 1457.26 410.71 1462.51 395.51 C1468.45 378.33 1474.47 361.18 1480.56 344.05 C1486.88 326.29 1493.07 308.49 1499.22 290.66 C1499.55 289.69 1499.89 288.72 1500.23 287.72 C1500.84 285.95 1501.45 284.18 1502.06 282.41 C1505.23 273.22 1508.65 264.14 1512.01 255.01 C1263.19 255.01 1014.37 255.01 758.01 255.01 C757.35 256.66 756.69 258.31 756.01 260.01 C754.47 262.25 752.9 264.42 751.26 266.58 C746.75 272.61 742.38 278.71 738.07 284.89 C737.48 285.74 736.89 286.59 736.28 287.46 C735.09 289.16 733.91 290.86 732.72 292.56 C730.12 296.28 727.51 299.99 724.88 303.7 C724.15 304.74 724.15 304.74 723.41 305.79 C722.43 307.17 721.45 308.56 720.48 309.94 C717.99 313.46 715.5 316.99 713.01 320.51 C712.01 321.93 711.01 323.35 710.01 324.76 C709.51 325.47 709.02 326.17 708.51 326.89 C659.01 397.01 609.51 467.14 212.01 1030.26 C211.51 1030.97 211.02 1031.67 210.51 1032.39 C209.51 1033.8 208.52 1035.21 207.53 1036.62 C204.94 1040.28 202.35 1043.95 199.76 1047.62 C198.96 1048.75 198.96 1048.75 198.14 1049.91 C197.13 1051.35 196.12 1052.78 195.11 1054.22 C194.64 1054.88 194.18 1055.53 193.7 1056.21 C193.26 1056.85 192.82 1057.48 192.36 1058.14 C191.44 1059.42 190.48 1060.66 189.48 1061.88 C187.83 1063.87 187.83 1063.87 186.01 1067.01 C186.66 1071.86 190.89 1076.21 193.76 1080.08 C194.94 1081.69 196.12 1083.31 197.3 1084.92 C197.91 1085.76 198.53 1086.59 199.16 1087.46 C202.18 1091.63 205.13 1095.85 208.07 1100.08 C209.25 1101.76 210.42 1103.45 211.6 1105.13 C212.17 1105.95 212.74 1106.77 213.33 1107.61 C215.92 1111.32 218.53 1115.01 221.13 1118.7 C221.62 1119.39 222.11 1120.08 222.61 1120.79 C223.59 1122.17 224.57 1123.56 225.54 1124.94 C228.03 1128.46 230.52 1131.99 233.01 1135.51 C234.01 1136.93 235.01 1138.35 236.01 1139.76 C335.01 1280.01 335.01 1280.01 735.51 1847.39 C736.5 1848.8 737.5 1850.2 738.49 1851.61 C741.1 1855.31 743.72 1859.02 746.33 1862.72 C746.87 1863.49 747.41 1864.26 747.97 1865.06 C749.01 1866.53 750.05 1868.01 751.09 1869.48 C751.56 1870.15 752.03 1870.82 752.51 1871.5 C752.95 1872.12 753.38 1872.74 753.83 1873.37 C754.8 1874.73 755.82 1876.05 756.85 1877.37 C758.01 1879.01 758.01 1879.01 758.01 1881.01 C1134.54 1881.01 1511.07 1881.01 1899.01 1881.01 C1894.51 1888.89 1894.51 1888.89 1892.42 1891.82 C1891.95 1892.48 1891.48 1893.13 1891 1893.81 C1890.51 1894.5 1890.02 1895.18 1889.51 1895.89 C1888.44 1897.4 1887.36 1898.9 1886.29 1900.41 C1885.75 1901.18 1885.2 1901.94 1884.64 1902.73 C1882.08 1906.31 1879.55 1909.91 1877.01 1913.51 C1876.01 1914.93 1875.01 1916.35 1874.01 1917.76 C1873.51 1918.47 1873.02 1919.17 1872.51 1919.89 C1748.01 2096.26 1748.01 2096.26 1746.51 2098.39 C1745.51 2099.8 1744.52 2101.21 1743.52 2102.62 C1740.95 2106.27 1738.38 2109.91 1735.8 2113.55 C1735.27 2114.29 1734.74 2115.04 1734.19 2115.81 C1733.19 2117.22 1732.19 2118.63 1731.19 2120.04 C1730.73 2120.69 1730.27 2121.34 1729.8 2122.01 C1729.36 2122.62 1728.92 2123.22 1728.47 2123.85 C1726.96 2125.98 1726.96 2125.98 1725.84 2128.33 C1723.93 2131.89 1722.49 2134.51 1718.54 2135.85 C1715.39 2136.18 1712.33 2136.21 1709.16 2136.15 C1707.34 2136.17 1707.34 2136.17 1705.49 2136.19 C1702.12 2136.22 1698.75 2136.21 1695.37 2136.18 C1691.7 2136.15 1688.02 2136.18 1684.34 2136.21 C1677.86 2136.24 1671.39 2136.24 1664.91 2136.22 C1655.22 2136.19 1645.53 2136.21 1635.83 2136.24 C1619.31 2136.3 1602.79 2136.3 1586.27 2136.29 C1569.53 2136.27 1552.78 2136.28 1536.03 2136.31 C1534.45 2136.31 1534.45 2136.31 1532.83 2136.31 C1528.53 2136.32 1524.22 2136.33 1519.92 2136.33 C1476.2 2136.41 1432.48 2136.43 1388.75 2136.42 C1382.71 2136.42 1376.66 2136.42 1370.62 2136.42 C1368.82 2136.42 1368.82 2136.42 1366.98 2136.42 C1340.39 2136.42 1313.81 2136.43 1287.22 2136.45 C1281.15 2136.45 1275.08 2136.46 1269.01 2136.46 C1266.58 2136.46 1264.14 2136.46 1261.71 2136.47 C1259.9 2136.47 1259.9 2136.47 1258.05 2136.47 C1255.61 2136.47 1253.17 2136.47 1250.73 2136.47 C1181.43 2136.52 1112.13 2136.54 1042.83 2136.53 C1041.55 2136.53 1040.26 2136.53 1038.94 2136.53 C1024.62 2136.53 1010.31 2136.52 995.99 2136.52 C992.07 2136.52 988.16 2136.52 984.24 2136.52 C981.62 2136.52 979.01 2136.52 976.39 2136.52 C893.71 2136.5 811.03 2136.54 728.35 2136.64 C707.52 2136.66 686.69 2136.69 665.86 2136.71 C664.58 2136.71 663.29 2136.72 661.97 2136.72 C622.45 2136.76 582.93 2136.79 543.41 2136.79 C542.17 2136.79 540.93 2136.79 539.65 2136.79 C512.42 2136.8 485.2 2136.8 457.97 2136.79 C448.23 2136.79 438.48 2136.79 428.74 2136.79 C426.32 2136.79 423.89 2136.79 421.47 2136.79 C382.82 2136.78 344.17 2136.82 305.52 2136.88 C266.6 2136.94 227.69 2136.95 188.77 2136.9 C183.39 2136.89 178.02 2136.88 172.64 2136.88 C171.59 2136.87 170.54 2136.87 169.45 2136.87 C152.75 2136.85 136.05 2136.88 119.35 2136.93 C102.93 2136.98 86.52 2136.98 70.11 2136.92 C60.48 2136.88 50.85 2136.89 41.22 2136.96 C34.83 2137 28.44 2136.98 22.05 2136.93 C18.43 2136.89 14.8 2136.89 11.18 2136.94 C-11.32 2137.28 -11.32 2137.28 -17.04 2131.73 C-19.57 2128.66 -21.44 2125.42 -23.12 2121.81 C-24.36 2119.25 -26 2117.04 -27.7 2114.77 C-28.78 2113.23 -29.85 2111.68 -30.93 2110.14 C-32.12 2108.43 -33.32 2106.71 -34.51 2105 C-35.09 2104.17 -35.68 2103.33 -36.28 2102.47 C-38.88 2098.74 -41.49 2095.03 -44.12 2091.33 C-44.6 2090.64 -45.09 2089.95 -45.59 2089.24 C-46.57 2087.86 -47.55 2086.47 -48.52 2085.09 C-51.01 2081.57 -53.5 2078.04 -55.99 2074.51 C-56.99 2073.1 -57.99 2071.68 -58.99 2070.26 C-108.49 2000.14 -157.99 1930.01 -738.49 1107.64 C-739.49 1106.23 -740.48 1104.81 -741.48 1103.4 C-744.03 1099.79 -746.58 1096.17 -749.13 1092.55 C-749.65 1091.82 -750.16 1091.09 -750.7 1090.33 C-751.71 1088.89 -752.73 1087.44 -753.74 1085.99 C-755.96 1082.83 -758.2 1079.71 -760.59 1076.68 C-761.34 1075.72 -762.09 1074.76 -762.87 1073.76 C-763.52 1072.95 -764.18 1072.15 -764.86 1071.31 C-765.99 1069.01 -765.99 1069.01 -765.48 1066.63 C-763.63 1063.38 -761.5 1060.42 -759.24 1057.45 C-754.73 1051.42 -750.36 1045.32 -746.05 1039.14 C-745.46 1038.29 -744.87 1037.44 -744.26 1036.57 C-743.07 1034.87 -741.89 1033.17 -740.7 1031.47 C-738.1 1027.74 -735.49 1024.03 -732.87 1020.33 C-732.38 1019.64 -731.89 1018.95 -731.39 1018.24 C-730.41 1016.86 -729.43 1015.47 -728.46 1014.09 C-725.97 1010.57 -723.48 1007.04 -720.99 1003.51 C-719.99 1002.1 -718.99 1000.68 -717.99 999.26 C-717.5 998.56 -717 997.86 -716.49 997.14 C-666.99 927.01 -617.49 856.89 -39.99 38.76 C-39.49 38.06 -39 37.36 -38.49 36.64 C-37.49 35.23 -36.5 33.82 -35.5 32.41 C-32.92 28.76 -30.35 25.1 -27.78 21.45 C-26.98 20.32 -26.98 20.32 -26.17 19.17 C-25.17 17.74 -24.17 16.32 -23.17 14.9 C-22.28 13.62 -21.37 12.36 -20.45 11.1 C-18.96 9.06 -18.96 9.06 -17.86 6.92 C-13.45 -0.54 -8.1 -0.12 0 0 Z " fill="#3E4396" transform="translate(1572.9900322556496,485.98570001125336)"/>
<path d="M0 0 C3.1 1.25 5.02 3.22 7.44 5.51 C8.43 6.43 9.41 7.35 10.4 8.27 C11.32 9.13 12.24 10 13.19 10.88 C16.85 14.17 20.58 17.37 24.34 20.56 C30.92 26.16 37.38 31.84 43.71 37.73 C47.16 40.95 50.67 44.1 54.24 47.18 C56.52 49.18 58.76 51.22 61 53.26 C64.38 56.31 67.82 59.23 71.38 62.07 C77.44 66.97 83.07 72.31 88.74 77.65 C91.87 80.6 95.06 83.45 98.31 86.25 C100.58 88.22 102.78 90.24 105 92.26 C108.38 95.31 111.82 98.23 115.38 101.07 C121.44 105.97 127.07 111.31 132.74 116.65 C135.87 119.59 139.05 122.45 142.3 125.25 C144.62 127.26 146.9 129.32 149.19 131.38 C154.51 136.18 159.88 140.92 165.34 145.56 C171.92 151.16 178.39 156.84 184.71 162.73 C188.16 165.95 191.67 169.1 195.24 172.18 C197.52 174.18 199.76 176.22 202 178.26 C205.38 181.31 208.82 184.23 212.38 187.07 C218.44 191.97 224.07 197.31 229.74 202.65 C232.87 205.6 236.06 208.45 239.31 211.25 C241.58 213.22 243.78 215.24 246 217.26 C249.38 220.31 252.82 223.23 256.38 226.07 C262.44 230.97 268.07 236.31 273.74 241.65 C276.86 244.59 280.04 247.44 283.29 250.24 C286.47 253 289.58 255.84 292.7 258.67 C295.47 261.14 298.33 263.51 301.19 265.88 C301.19 306.8 301.19 347.72 301.19 389.88 C503.48 389.88 705.77 389.88 914.19 389.88 C913.61 394.53 913.07 398.84 912.1 403.37 C908.78 419.46 906.54 435.5 905.19 451.88 C905.04 453.53 905.04 453.53 904.9 455.21 C903.81 469.55 903.94 483.94 903.94 498.32 C903.94 499.03 903.94 499.75 903.94 500.48 C903.92 526.79 904.82 552.94 906.97 579.17 C907.18 581.81 907.39 584.45 907.59 587.09 C914.42 673.95 930.13 760.71 956.19 843.88 C953.19 843.88 953.19 843.88 950.52 841.54 C949.48 840.49 948.46 839.44 947.44 838.38 C946.94 837.88 946.44 837.37 945.92 836.85 C943.25 834.12 940.7 831.32 938.22 828.41 C933.22 822.68 927.8 817.35 922.41 811.97 C921.27 810.84 920.14 809.7 919 808.56 C916.63 806.19 914.26 803.82 911.88 801.45 C908.86 798.43 905.84 795.41 902.82 792.38 C900.48 790.04 898.13 787.69 895.79 785.35 C894.67 784.24 893.56 783.12 892.45 782.01 C887.05 776.6 881.64 771.27 875.83 766.3 C873.7 764.46 871.72 762.51 869.75 760.51 C869 759.75 868.25 758.99 867.48 758.21 C865.95 756.66 864.42 755.11 862.9 753.55 C858.71 749.32 854.45 745.29 849.93 741.41 C847.01 738.86 844.35 736.07 841.66 733.29 C838.96 730.66 836.14 728.21 833.3 725.74 C829.9 722.75 826.61 719.63 823.31 716.51 C817.34 710.88 811.31 705.34 805.19 699.88 C803.52 698.38 801.85 696.88 800.19 695.38 C799.36 694.64 798.53 693.9 797.68 693.13 C796.03 691.64 794.37 690.14 792.72 688.63 C788.51 684.8 784.25 681.08 779.81 677.51 C775.8 674.26 771.96 670.9 768.19 667.38 C763.66 663.17 758.98 659.21 754.17 655.33 C750.61 652.41 747.15 649.4 743.69 646.38 C738.59 641.94 733.44 637.57 728.18 633.32 C725.85 631.42 723.53 629.52 721.22 627.61 C712.86 620.68 704.44 613.86 695.87 607.2 C693.62 605.44 691.39 603.68 689.15 601.92 C686.8 600.07 684.45 598.23 682.1 596.39 C680.78 595.35 679.45 594.3 678.13 593.26 C667.42 584.85 656.57 576.67 645.57 568.63 C643.2 566.89 640.83 565.14 638.47 563.38 C630.69 557.61 622.87 551.91 614.93 546.36 C614.08 545.76 613.22 545.16 612.34 544.55 C603.41 538.32 594.42 532.19 585.41 526.1 C582.69 524.26 579.97 522.41 577.25 520.56 C566.87 513.53 556.36 506.84 545.55 500.47 C541.5 498.09 537.52 495.6 533.56 493.07 C466.27 450.67 392.36 416.93 314.83 398.75 C310.94 397.82 307.06 396.86 303.19 395.88 C303.2 448.45 303.22 501.02 303.23 553.59 C303.23 555.14 303.23 555.14 303.23 556.71 C303.26 666.95 303.3 777.18 303.35 887.42 C303.35 889.87 303.35 892.32 303.35 894.77 C303.37 946.17 303.39 997.57 303.41 1048.98 C303.43 1074.8 303.44 1100.62 303.45 1126.44 C303.45 1130.34 303.45 1134.23 303.45 1138.13 C303.48 1198.1 303.5 1258.08 303.52 1318.05 C303.52 1319.34 303.52 1320.63 303.52 1321.96 C303.52 1342.74 303.53 1363.53 303.53 1384.32 C303.55 1444.2 303.57 1504.08 303.59 1563.96 C303.59 1565.81 303.59 1565.81 303.6 1567.69 C303.61 1594.73 303.62 1621.77 303.63 1648.8 C303.64 1659.68 303.65 1670.56 303.65 1681.44 C303.65 1682.63 303.65 1683.82 303.65 1685.05 C303.67 1723.4 303.68 1761.76 303.69 1800.11 C303.69 1838.75 303.7 1877.39 303.73 1916.03 C303.73 1921.37 303.74 1926.72 303.74 1932.06 C303.74 1933.11 303.74 1934.15 303.74 1935.23 C303.75 1951.8 303.76 1968.37 303.75 1984.94 C303.75 2001.24 303.76 2017.54 303.77 2033.84 C303.79 2043.39 303.79 2052.94 303.78 2062.49 C303.77 2068.84 303.78 2075.19 303.79 2081.55 C303.8 2085.14 303.8 2088.74 303.79 2092.33 C303.74 2112.62 304.88 2132.49 309.44 2152.32 C309.65 2153.25 309.86 2154.19 310.08 2155.15 C326.01 2223.93 362.97 2286.47 408.55 2339.78 C411.07 2342.73 413.51 2345.74 415.94 2348.76 C418.92 2352.43 422 2355.83 425.41 2359.1 C427.18 2360.88 428.82 2362.72 430.45 2364.63 C433.94 2368.65 437.6 2372.44 441.37 2376.2 C442.03 2376.86 442.69 2377.52 443.37 2378.2 C444.75 2379.58 446.14 2380.97 447.52 2382.35 C449.62 2384.44 451.71 2386.54 453.81 2388.64 C455.16 2389.99 456.52 2391.35 457.87 2392.7 C458.49 2393.32 459.1 2393.93 459.73 2394.57 C463.5 2398.32 467.39 2401.88 471.42 2405.35 C473.83 2407.44 476.16 2409.6 478.5 2411.76 C483.9 2416.68 489.5 2421.3 495.19 2425.88 C496.37 2426.86 497.55 2427.83 498.73 2428.81 C518.28 2444.92 538.69 2460.68 560.48 2473.65 C561.33 2474.26 561.33 2474.26 562.19 2474.88 C562.19 2475.54 562.19 2476.2 562.19 2476.88 C190.94 2476.88 -180.31 2476.88 -562.81 2476.88 C-562.81 2476.22 -562.81 2475.56 -562.81 2474.88 C-560.43 2473.21 -558.04 2471.66 -555.56 2470.13 C-523.6 2449.87 -493.46 2426.3 -465.71 2400.56 C-463.85 2398.85 -461.98 2397.14 -460.1 2395.45 C-453.37 2389.4 -446.91 2383.09 -440.5 2376.7 C-439.65 2375.85 -438.8 2375.01 -437.93 2374.14 C-433.58 2369.78 -429.38 2365.35 -425.37 2360.68 C-423.12 2358.08 -420.78 2355.58 -418.44 2353.07 C-413.32 2347.53 -408.53 2341.77 -403.81 2335.88 C-402.89 2334.75 -401.97 2333.62 -401.04 2332.49 C-349.71 2269.45 -304.54 2187.93 -304.68 2104.6 C-304.68 2103.39 -304.68 2102.18 -304.68 2100.94 C-304.67 2097.59 -304.67 2094.24 -304.67 2090.89 C-304.67 2087.23 -304.67 2083.57 -304.67 2079.91 C-304.66 2073.48 -304.66 2067.04 -304.66 2060.61 C-304.66 2050.97 -304.65 2041.34 -304.64 2031.71 C-304.63 2015.29 -304.62 1998.87 -304.62 1982.45 C-304.61 1965.81 -304.6 1949.17 -304.59 1932.53 C-304.59 1931.48 -304.59 1930.43 -304.59 1929.34 C-304.59 1923.99 -304.58 1918.63 -304.58 1913.27 C-304.56 1874.49 -304.54 1835.7 -304.52 1796.92 C-304.51 1758.5 -304.49 1720.09 -304.47 1681.68 C-304.46 1680.48 -304.46 1679.29 -304.46 1678.06 C-304.46 1667.17 -304.45 1656.28 -304.45 1645.38 C-304.43 1618.3 -304.42 1591.22 -304.4 1564.14 C-304.4 1562.91 -304.4 1561.68 -304.4 1560.41 C-304.37 1500.41 -304.34 1440.41 -304.31 1380.41 C-304.3 1359.59 -304.29 1338.77 -304.28 1317.94 C-304.28 1316.65 -304.28 1315.36 -304.28 1314.03 C-304.25 1254 -304.22 1193.98 -304.19 1133.95 C-304.18 1130.05 -304.18 1126.16 -304.18 1122.26 C-304.17 1096.44 -304.15 1070.61 -304.14 1044.79 C-304.11 993.41 -304.09 942.03 -304.06 890.64 C-304.06 888.2 -304.06 885.75 -304.05 883.3 C-304 773.13 -303.94 662.97 -303.89 552.8 C-303.89 551.77 -303.89 550.74 -303.89 549.67 C-303.86 498.08 -303.84 446.48 -303.81 394.88 C-308.22 395.81 -312.63 396.75 -317.03 397.69 C-318.26 397.95 -319.49 398.21 -320.76 398.48 C-386.99 412.59 -450.87 440.59 -509.32 474.45 C-512.4 476.22 -515.51 477.93 -518.63 479.63 C-556.9 500.55 -593.43 525.41 -628.81 550.88 C-630.29 551.94 -631.77 553 -633.25 554.06 C-642.48 560.68 -651.6 567.42 -660.66 574.26 C-663 576.02 -665.34 577.77 -667.7 579.51 C-676.35 585.95 -684.9 592.47 -693.23 599.32 C-697.18 602.57 -701.18 605.73 -705.25 608.82 C-712.53 614.38 -719.56 620.21 -726.61 626.06 C-728.8 627.87 -730.99 629.67 -733.18 631.47 C-741.58 638.35 -749.89 645.32 -758.11 652.42 C-760.42 654.41 -762.74 656.39 -765.06 658.38 C-766.22 659.38 -767.39 660.38 -768.56 661.38 C-771.49 663.9 -774.43 666.41 -777.38 668.92 C-784.09 674.63 -790.67 680.44 -797.14 686.43 C-800 689.05 -802.91 691.61 -805.84 694.16 C-813.44 700.8 -820.85 707.65 -828.28 714.48 C-830.28 716.31 -832.27 718.14 -834.27 719.96 C-836.26 721.79 -838.25 723.62 -840.24 725.44 C-841.33 726.44 -842.41 727.43 -843.49 728.42 C-851.94 736.16 -851.94 736.16 -860.1 744.2 C-861.82 745.89 -863.61 747.45 -865.45 749.02 C-870.13 753.09 -874.47 757.46 -878.81 761.88 C-880.33 763.43 -881.85 764.97 -883.38 766.51 C-884.04 767.18 -884.7 767.85 -885.38 768.55 C-887.33 770.42 -889.3 772.17 -891.35 773.92 C-897.07 778.89 -902.37 784.3 -907.72 789.66 C-908.86 790.8 -910 791.93 -911.14 793.07 C-913.51 795.44 -915.88 797.81 -918.25 800.19 C-921.27 803.21 -924.29 806.23 -927.31 809.25 C-929.66 811.59 -932 813.94 -934.35 816.28 C-935.46 817.4 -936.57 818.51 -937.69 819.62 C-943.12 825.05 -948.5 830.47 -953.48 836.33 C-955.15 838.27 -956.92 840.09 -958.75 841.88 C-959.63 842.75 -959.63 842.75 -960.53 843.63 C-960.95 844.05 -961.38 844.46 -961.81 844.88 C-962.47 844.55 -963.13 844.22 -963.81 843.88 C-963.56 842.96 -963.3 842.04 -963.04 841.09 C-938.04 750.78 -921.99 658.14 -924.19 400.26 C-925.09 396.81 -925.95 393.34 -926.81 389.88 C-721.22 389.88 -515.63 389.88 -303.81 389.88 C-303.81 349.62 -303.81 309.36 -303.81 267.88 C-301.17 265.57 -298.53 263.26 -295.81 260.88 C-294.14 259.39 -292.47 257.89 -290.81 256.38 C-287.2 253.12 -283.55 249.89 -279.88 246.7 C-277.5 244.61 -275.16 242.5 -272.81 240.38 C-269.2 237.12 -265.55 233.89 -261.88 230.7 C-259.5 228.61 -257.16 226.5 -254.81 224.38 C-251.2 221.12 -247.55 217.89 -243.88 214.7 C-241.5 212.61 -239.16 210.5 -236.81 208.38 C-233.2 205.12 -229.55 201.89 -225.88 198.7 C-223.5 196.61 -221.16 194.5 -218.81 192.38 C-215.2 189.12 -211.55 185.89 -207.88 182.7 C-205.5 180.61 -203.16 178.5 -200.81 176.38 C-197.2 173.12 -193.55 169.89 -189.88 166.7 C-186.64 163.85 -183.45 160.95 -180.25 158.07 C-178.14 156.17 -176.01 154.3 -173.88 152.45 C-170.65 149.63 -167.48 146.77 -164.31 143.88 C-160.53 140.43 -156.71 137.02 -152.84 133.66 C-150.48 131.59 -148.14 129.49 -145.81 127.38 C-142.2 124.12 -138.55 120.89 -134.88 117.7 C-132.5 115.61 -130.16 113.5 -127.81 111.38 C-124.2 108.12 -120.55 104.89 -116.88 101.7 C-114.5 99.61 -112.16 97.5 -109.81 95.38 C-106.2 92.12 -102.55 88.89 -98.88 85.7 C-96.5 83.61 -94.16 81.5 -91.81 79.38 C-88.2 76.12 -84.55 72.89 -80.88 69.7 C-78.5 67.61 -76.16 65.5 -73.81 63.38 C-70.2 60.12 -66.55 56.89 -62.88 53.7 C-60.5 51.61 -58.16 49.5 -55.81 47.38 C-52.2 44.12 -48.55 40.89 -44.88 37.7 C-42.5 35.61 -40.16 33.5 -37.81 31.38 C-34.2 28.12 -30.55 24.89 -26.88 21.7 C-24.5 19.61 -22.16 17.5 -19.81 15.38 C-16.09 12.02 -12.36 8.67 -8.56 5.39 C-7.04 4.08 -5.55 2.73 -4.06 1.38 C-1.81 -0.12 -1.81 -0.12 0 0 Z M0.19 281.88 C-0.23 282.27 -0.64 282.66 -1.06 283.06 C-4.37 286.16 -7.68 289.26 -11 292.35 C-11.63 292.94 -12.26 293.53 -12.91 294.13 C-16.64 297.56 -20.45 300.87 -24.31 304.15 C-31.71 310.46 -39.01 316.84 -46.16 323.44 C-50.66 327.59 -55.29 331.59 -59.96 335.55 C-65.91 340.62 -71.79 345.73 -77.5 351.07 C-81.31 354.64 -85.17 358.05 -89.25 361.32 C-94.95 365.9 -100.24 370.86 -105.57 375.86 C-108.7 378.79 -111.9 381.63 -115.16 384.42 C-117.12 386.16 -118.96 388.03 -120.81 389.88 C-40.95 389.88 38.91 389.88 121.19 389.88 C117.06 384.86 117.06 384.86 112.5 380.57 C109.35 377.89 106.26 375.16 103.19 372.38 C100.23 369.71 97.26 367.06 94.25 364.45 C90.06 360.79 85.96 357.04 81.85 353.29 C79 350.71 76.11 348.18 73.21 345.65 C68.29 341.34 63.46 336.94 58.61 332.55 C54.82 329.14 51.03 325.73 47.19 322.38 C41.6 317.51 36.11 312.52 30.61 307.55 C26.19 303.57 21.75 299.61 17.26 295.71 C13.99 292.83 10.79 289.86 7.58 286.9 C5.23 284.92 2.86 283.38 0.19 281.88 Z " fill="#3E4396" transform="translate(6173.8125,144.1171875)"/>
<path d="M0 0 C385.11 0 770.22 0 1167 0 C1164.14 5.15 1161.42 9.99 1158.25 14.88 C1142.19 40.99 1133.07 71.59 1130 102 C1129.83 103.43 1129.83 103.43 1129.66 104.89 C1121.01 192.37 1159.69 283.78 1210.48 352.93 C1212.12 355.16 1213.74 357.41 1215.36 359.66 C1222.16 369.05 1229.26 378.11 1236.7 387.02 C1239.72 390.64 1242.66 394.33 1245.56 398.06 C1251.6 405.8 1257.8 413.4 1264 421 C1270.78 429.3 1277.52 437.62 1284.12 446.07 C1287.54 450.44 1291.04 454.75 1294.56 459.04 C1301.62 467.62 1308.65 476.24 1315.5 485 C1321.56 492.75 1327.78 500.38 1334 508 C1340.68 516.19 1347.33 524.39 1353.84 532.72 C1359.46 539.89 1365.24 546.94 1371 554 C1377.68 562.19 1384.33 570.39 1390.84 578.72 C1396.46 585.89 1402.24 592.94 1408 600 C1414.68 608.19 1421.33 616.39 1427.84 624.72 C1433.46 631.89 1439.24 638.94 1445 646 C1451.78 654.3 1458.52 662.62 1465.12 671.07 C1468.54 675.44 1472.04 679.75 1475.56 684.04 C1482.62 692.62 1489.65 701.24 1496.5 710 C1502.56 717.75 1508.78 725.38 1515 733 C1521.68 741.19 1528.33 749.39 1534.84 757.72 C1540.46 764.89 1546.24 771.94 1552 779 C1558.68 787.19 1565.33 795.39 1571.84 803.72 C1577.46 810.89 1583.24 817.94 1589 825 C1595.68 833.19 1602.33 841.39 1608.84 849.72 C1614.46 856.89 1620.24 863.94 1626 871 C1632.78 879.3 1639.52 887.62 1646.12 896.07 C1649.54 900.44 1653.04 904.75 1656.56 909.04 C1663.62 917.62 1670.65 926.24 1677.5 935 C1683.56 942.75 1689.78 950.38 1696 958 C1702.68 966.19 1709.33 974.39 1715.84 982.72 C1721.46 989.89 1727.24 996.94 1733 1004 C1739.68 1012.19 1746.33 1020.39 1752.84 1028.72 C1758.46 1035.89 1764.24 1042.94 1770 1050 C1778.1 1059.92 1786.15 1069.88 1794 1080 C1794.53 1080.62 1795.07 1081.25 1795.62 1081.89 C1797.24 1084.36 1797.38 1085.66 1797.38 1088.59 C1797.38 1089.52 1797.39 1090.44 1797.4 1091.39 C1797.39 1092.41 1797.38 1093.42 1797.38 1094.46 C1797.38 1096.09 1797.38 1096.09 1797.39 1097.75 C1797.4 1101.4 1797.39 1105.06 1797.38 1108.72 C1797.38 1111.36 1797.39 1114 1797.39 1116.64 C1797.4 1122.39 1797.4 1128.14 1797.39 1133.89 C1797.38 1142.45 1797.39 1151 1797.4 1159.56 C1797.41 1173.95 1797.42 1188.34 1797.41 1202.74 C1797.4 1222.42 1797.42 1242.09 1797.43 1261.77 C1797.44 1270.94 1797.45 1280.11 1797.46 1289.28 C1797.46 1290.2 1797.46 1291.11 1797.46 1292.06 C1797.48 1313.92 1797.48 1335.78 1797.49 1357.65 C1797.49 1358.6 1797.49 1359.56 1797.49 1360.55 C1797.49 1375.09 1797.5 1389.64 1797.5 1404.19 C1797.5 1419.66 1797.51 1435.14 1797.51 1450.61 C1797.51 1451.57 1797.51 1452.52 1797.51 1453.5 C1797.52 1475.29 1797.53 1497.07 1797.54 1518.85 C1797.54 1519.77 1797.54 1520.68 1797.55 1521.63 C1797.55 1530.79 1797.56 1539.95 1797.57 1549.11 C1797.59 1568.75 1797.6 1588.39 1797.59 1608.04 C1797.58 1622.37 1797.59 1636.71 1797.6 1651.05 C1797.61 1659.55 1797.61 1668.05 1797.6 1676.55 C1797.6 1682.25 1797.6 1687.95 1797.61 1693.65 C1797.62 1696.88 1797.62 1700.12 1797.61 1703.35 C1797.55 1724.26 1798.88 1745.02 1803.69 1765.44 C1804.07 1767.1 1804.07 1767.1 1804.46 1768.8 C1820.29 1835.5 1855.25 1895.76 1899 1948 C1899.42 1948.5 1899.84 1949.01 1900.27 1949.53 C1906.47 1956.98 1912.85 1964.21 1919.45 1971.3 C1920.62 1972.59 1921.78 1973.88 1922.93 1975.18 C1928.45 1981.39 1934.18 1987.34 1940.07 1993.2 C1941.57 1994.69 1943.06 1996.19 1944.56 1997.7 C1949.33 2002.47 1954.16 2007.14 1959.29 2011.54 C1961.69 2013.59 1963.99 2015.73 1966.31 2017.88 C1970.72 2021.89 1975.24 2025.73 1979.88 2029.47 C1982.21 2031.35 1984.51 2033.26 1986.8 2035.18 C1997.22 2043.9 2007.96 2052.08 2019 2060 C2020.11 2060.8 2020.11 2060.8 2021.25 2061.62 C2037.21 2073.22 2037.21 2073.22 2053.92 2083.65 C2054.61 2084.1 2055.29 2084.54 2056 2085 C2056 2085.66 2056 2086.32 2056 2087 C1684.75 2087 1313.5 2087 931 2087 C931 2086.34 931 2085.68 931 2085 C933.28 2083.46 935.57 2082.03 937.94 2080.62 C946.92 2075.15 955.48 2069.17 964 2063 C964.77 2062.44 965.55 2061.89 966.34 2061.31 C976.92 2053.67 987.21 2045.76 997.26 2037.44 C999.78 2035.35 1002.33 2033.31 1004.88 2031.25 C1009.26 2027.66 1013.49 2023.92 1017.68 2020.11 C1019.7 2018.27 1021.75 2016.47 1023.81 2014.69 C1034.03 2005.73 1043.76 1996.34 1053.38 1986.75 C1054.16 1985.97 1054.16 1985.97 1054.96 1985.18 C1060.86 1979.3 1066.59 1973.34 1072 1967 C1073.45 1965.39 1074.91 1963.79 1076.38 1962.19 C1081.11 1956.94 1085.57 1951.5 1090 1946 C1090.91 1944.88 1091.83 1943.76 1092.74 1942.64 C1142.68 1881.17 1189.05 1800.16 1189.16 1718.49 C1189.17 1717.13 1189.17 1717.13 1189.17 1715.74 C1189.19 1712.72 1189.2 1709.69 1189.21 1706.67 C1189.22 1704.47 1189.23 1702.28 1189.24 1700.08 C1189.27 1694.06 1189.29 1688.04 1189.31 1682.01 C1189.32 1676.84 1189.35 1671.67 1189.37 1666.51 C1189.56 1618.3 1189.67 1570.1 1189.75 1521.9 C1189.76 1514.74 1189.78 1507.57 1189.79 1500.4 C1189.79 1499.21 1189.79 1499.21 1189.79 1498 C1189.84 1472.33 1189.93 1446.66 1190.05 1420.98 C1190.16 1394.57 1190.24 1368.16 1190.26 1341.74 C1190.27 1338.01 1190.27 1334.27 1190.27 1330.54 C1190.27 1329.81 1190.27 1329.07 1190.27 1328.32 C1190.29 1316.51 1190.34 1304.71 1190.42 1292.91 C1190.49 1281.03 1190.52 1269.16 1190.5 1257.29 C1190.48 1250.87 1190.5 1244.44 1190.56 1238.01 C1190.62 1232.12 1190.63 1226.24 1190.58 1220.34 C1190.57 1218.22 1190.59 1216.1 1190.63 1213.97 C1190.87 1200.37 1188.89 1192.36 1179.33 1182.41 C1178.77 1181.85 1178.21 1181.29 1177.64 1180.71 C1175.03 1177.98 1172.78 1175 1170.5 1172 C1166.56 1166.95 1162.55 1161.96 1158.5 1157 C1153.99 1151.48 1149.55 1145.91 1145.16 1140.29 C1141.66 1135.82 1138.09 1131.4 1134.5 1127 C1130.45 1122.04 1126.44 1117.05 1122.5 1112 C1116.44 1104.25 1110.22 1096.62 1104 1089 C1097.32 1080.82 1090.67 1072.62 1084.16 1064.29 C1080.66 1059.82 1077.09 1055.4 1073.5 1051 C1068.99 1045.48 1064.55 1039.91 1060.16 1034.29 C1056.66 1029.82 1053.09 1025.4 1049.5 1021 C1044.99 1015.48 1040.55 1009.91 1036.16 1004.29 C1032.66 999.82 1029.09 995.4 1025.5 991 C1020.99 985.48 1016.55 979.91 1012.16 974.29 C1008.12 969.12 1003.98 964.04 999.83 958.96 C996.36 954.7 992.94 950.4 989.56 946.06 C985.46 940.8 981.25 935.64 977 930.5 C972.29 924.81 967.66 919.07 963.11 913.24 C959.63 908.78 956.08 904.38 952.5 900 C947.99 894.48 943.55 888.91 939.16 883.29 C935.66 878.82 932.09 874.4 928.5 870 C923.99 864.48 919.55 858.91 915.16 853.29 C911.12 848.13 906.99 843.05 902.84 837.97 C899.27 833.58 895.74 829.15 892.25 824.69 C888.37 819.73 884.44 814.83 880.44 809.96 C872.92 800.82 865.45 791.62 858.16 782.29 C854.66 777.82 851.09 773.4 847.5 769 C842.99 763.48 838.55 757.91 834.16 752.29 C830.66 747.82 827.09 743.4 823.5 739 C818.99 733.48 814.55 727.91 810.16 722.29 C806.66 717.82 803.09 713.4 799.5 709 C794.99 703.48 790.55 697.91 786.16 692.29 C782.12 687.12 777.98 682.04 773.83 676.96 C770.36 672.7 766.94 668.4 763.56 664.06 C759.46 658.8 755.25 653.64 751 648.5 C746.29 642.81 741.66 637.07 737.11 631.24 C733.63 626.78 730.08 622.38 726.5 618 C721.99 612.48 717.55 606.91 713.16 601.29 C709.66 596.82 706.09 592.4 702.5 588 C697.99 582.48 693.55 576.91 689.16 571.29 C685.12 566.13 680.99 561.05 676.84 555.97 C673.27 551.58 669.74 547.15 666.25 542.69 C662.37 537.73 658.44 532.83 654.44 527.96 C646.92 518.82 639.45 509.62 632.16 500.29 C628.66 495.82 625.09 491.4 621.5 487 C616.99 481.48 612.55 475.91 608.16 470.29 C604.66 465.82 601.09 461.4 597.5 457 C592.99 451.48 588.55 445.91 584.16 440.29 C580.66 435.82 577.09 431.4 573.5 427 C568.99 421.48 564.55 415.91 560.16 410.29 C556.12 405.13 551.99 400.05 547.84 394.97 C544.3 390.62 540.82 386.24 537.38 381.81 C533.36 376.66 529.22 371.64 524.98 366.68 C522.12 363.33 519.32 359.94 516.56 356.5 C512.19 351.12 507.52 346.07 502.79 341.01 C500.54 338.59 498.34 336.13 496.19 333.62 C493.53 330.55 490.72 327.7 487.82 324.86 C486.15 323.15 484.6 321.39 483.06 319.57 C478.36 314.17 473.3 309.15 468.23 304.1 C466.57 302.44 464.91 300.78 463.25 299.11 C458.19 294.05 453.12 289.06 447.65 284.44 C445.85 282.87 444.17 281.21 442.5 279.5 C439.55 276.51 436.47 273.75 433.29 271.01 C431.06 269.06 428.89 267.06 426.72 265.05 C421.51 260.22 416.18 255.63 410.65 251.18 C408.03 249.02 405.51 246.79 403 244.5 C397.82 239.8 392.44 235.39 387 231 C385.73 229.97 384.47 228.93 383.2 227.89 C375.93 221.94 368.6 216.08 361.12 210.38 C358.03 208.02 354.95 205.64 351.88 203.25 C343.36 196.68 334.68 190.34 326 184 C325.26 183.46 324.52 182.92 323.76 182.36 C301.63 166.21 279 150.87 256 136 C255.02 135.36 254.03 134.73 253.02 134.07 C229.13 118.64 204.73 104.04 180 90 C178.97 89.42 177.95 88.83 176.89 88.23 C143.58 69.34 109.72 51.19 75 35 C73.59 34.34 72.18 33.68 70.77 33.02 C51.18 23.85 31.52 14.91 11.55 6.59 C10.85 6.3 10.14 6 9.41 5.7 C7.51 4.9 5.61 4.11 3.71 3.32 C1 2 1 2 0 0 Z " fill="#3E4396" transform="translate(7612,534)"/>
<path d="M0 0 C371.25 0 742.5 0 1125 0 C1125 0.66 1125 1.32 1125 2 C1122.72 3.54 1120.43 4.97 1118.06 6.38 C1109.08 11.85 1100.52 17.83 1092 24 C1091.23 24.56 1090.45 25.11 1089.66 25.69 C1079.08 33.33 1068.79 41.24 1058.74 49.56 C1056.22 51.65 1053.67 53.69 1051.12 55.75 C1046.74 59.34 1042.51 63.08 1038.32 66.89 C1036.3 68.73 1034.25 70.53 1032.19 72.31 C1021.97 81.27 1012.24 90.66 1002.62 100.25 C1002.1 100.77 1001.58 101.29 1001.04 101.82 C995.68 107.17 990.38 112.54 985.45 118.3 C983.41 120.7 981.26 123 979.12 125.31 C974.2 130.71 969.56 136.29 965 142 C964.39 142.76 964.39 142.76 963.76 143.54 C949.78 160.99 936.95 179.09 925 198 C924.56 198.69 924.13 199.38 923.68 200.09 C892.79 249.33 866.73 309.86 866.87 368.99 C866.87 369.95 866.87 370.91 866.87 371.9 C866.86 375.12 866.87 378.33 866.87 381.54 C866.87 383.88 866.86 386.22 866.86 388.56 C866.86 394.33 866.86 400.1 866.86 405.87 C866.86 412.84 866.86 419.8 866.85 426.76 C866.84 439.77 866.84 452.78 866.84 465.8 C866.84 478.98 866.84 492.17 866.83 505.36 C866.83 506.19 866.83 507.02 866.83 507.88 C866.83 511.27 866.83 514.66 866.83 518.06 C866.81 558.21 866.8 598.37 866.8 638.53 C866.8 658.53 866.79 678.53 866.79 698.53 C866.78 762.68 866.77 826.84 866.76 891 C866.76 894.07 866.76 897.13 866.76 900.2 C866.76 906.35 866.76 912.5 866.76 918.65 C866.76 925.85 866.76 933.05 866.76 940.25 C866.76 942.31 866.76 944.37 866.76 946.43 C866.76 1012.59 866.74 1078.76 866.72 1144.93 C866.7 1192.47 866.69 1240.02 866.68 1287.56 C866.68 1288.54 866.68 1289.52 866.68 1290.53 C866.68 1312 866.68 1333.48 866.68 1354.95 C866.68 1362.64 866.68 1370.32 866.68 1378.01 C866.68 1379.92 866.68 1381.83 866.68 1383.74 C866.68 1414.18 866.67 1444.62 866.65 1475.06 C866.64 1505.73 866.63 1536.41 866.64 1567.08 C866.64 1571.32 866.64 1575.56 866.64 1579.8 C866.64 1580.64 866.64 1581.47 866.64 1582.33 C866.65 1595.47 866.64 1608.61 866.63 1621.75 C866.62 1634.69 866.62 1647.63 866.63 1660.57 C866.63 1667.48 866.63 1674.4 866.62 1681.31 C866.61 1687.62 866.61 1693.92 866.62 1700.22 C866.63 1702.47 866.62 1704.73 866.62 1706.98 C866.55 1726.83 868.25 1746.4 872.81 1765.75 C873.07 1766.87 873.33 1768 873.6 1769.16 C887.66 1829.05 917.58 1883.57 955 1932 C955.46 1932.6 955.92 1933.19 956.39 1933.81 C966.15 1946.51 976.57 1958.59 987.47 1970.32 C988.62 1971.59 989.76 1972.86 990.89 1974.14 C996.69 1980.67 1002.74 1986.89 1008.92 1993.05 C1010.57 1994.69 1012.21 1996.34 1013.85 1997.99 C1019.4 2003.54 1025.03 2008.9 1031 2014 C1032.78 2015.62 1034.55 2017.24 1036.31 2018.88 C1041.71 2023.8 1047.31 2028.42 1053 2033 C1054.23 2034.01 1055.46 2035.02 1056.69 2036.03 C1077.51 2053.14 1099.55 2070.37 1123.02 2083.71 C1123.67 2084.14 1124.33 2084.56 1125 2085 C1125 2085.66 1125 2086.32 1125 2087 C753.75 2087 382.5 2087 0 2087 C0 2086.34 0 2085.68 0 2085 C2.26 2083.48 4.53 2082.07 6.88 2080.69 C15.47 2075.46 23.57 2069.69 31.66 2063.72 C34.03 2061.98 36.42 2060.24 38.8 2058.52 C48.53 2051.44 57.99 2044.11 67.26 2036.44 C69.78 2034.35 72.33 2032.31 74.88 2030.25 C79.26 2026.66 83.49 2022.92 87.69 2019.1 C89.66 2017.3 91.66 2015.55 93.69 2013.81 C103.99 2004.8 113.81 1995.29 123.5 1985.62 C124.34 1984.79 125.17 1983.96 126.03 1983.1 C130.34 1978.79 134.5 1974.4 138.47 1969.77 C140.55 1967.36 142.71 1965.03 144.88 1962.69 C149.8 1957.29 154.43 1951.7 159 1946 C159.92 1944.87 160.85 1943.74 161.77 1942.61 C181.49 1918.38 198.79 1892.26 214 1865 C214.49 1864.13 214.98 1863.26 215.48 1862.36 C239.49 1819.1 258.25 1767.01 258.13 1717.02 C258.13 1715.58 258.13 1715.58 258.13 1714.12 C258.14 1710.91 258.13 1707.7 258.13 1704.49 C258.13 1702.15 258.14 1699.82 258.14 1697.48 C258.14 1691.72 258.14 1685.96 258.14 1680.2 C258.14 1673.25 258.14 1666.3 258.15 1659.35 C258.16 1646.35 258.16 1633.36 258.16 1620.37 C258.16 1607.21 258.16 1594.04 258.17 1580.88 C258.17 1580.04 258.17 1579.21 258.17 1578.36 C258.17 1574.97 258.17 1571.58 258.17 1568.2 C258.19 1528.1 258.2 1488.01 258.2 1447.91 C258.2 1427.94 258.21 1407.98 258.21 1388.01 C258.22 1323.95 258.23 1259.89 258.24 1195.83 C258.24 1192.77 258.24 1189.71 258.24 1186.64 C258.24 1180.5 258.24 1174.36 258.24 1168.22 C258.24 1161.04 258.24 1153.85 258.24 1146.66 C258.24 1144.6 258.24 1142.54 258.24 1140.49 C258.24 1074.42 258.26 1008.36 258.28 942.3 C258.3 894.83 258.31 847.36 258.32 799.89 C258.32 798.91 258.32 797.93 258.32 796.93 C258.32 775.49 258.32 754.04 258.32 732.6 C258.32 724.93 258.32 717.25 258.32 709.58 C258.32 707.67 258.32 705.76 258.32 703.85 C258.32 673.46 258.33 643.07 258.35 612.68 C258.36 582.05 258.37 551.43 258.36 520.81 C258.36 516.57 258.36 512.33 258.36 508.1 C258.36 507.26 258.36 506.43 258.36 505.58 C258.35 492.46 258.36 479.34 258.37 466.22 C258.38 453.3 258.38 440.38 258.37 427.46 C258.37 420.55 258.37 413.65 258.38 406.75 C258.39 400.45 258.39 394.16 258.38 387.87 C258.37 385.62 258.38 383.37 258.38 381.12 C258.45 361.09 256.92 341.1 252.31 321.56 C252.06 320.45 251.8 319.35 251.54 318.2 C230.54 229.69 176.37 154.44 113.06 90.94 C112.57 90.44 112.08 89.95 111.58 89.44 C106.44 84.28 101.26 79.22 95.72 74.48 C93.32 72.42 91.01 70.27 88.69 68.12 C83.29 63.2 77.69 58.58 72 54 C70.77 52.99 69.54 51.98 68.31 50.97 C47.49 33.86 25.45 16.63 1.98 3.29 C1 2.65 1 2.65 0 2 C0 1.34 0 0.68 0 0 Z " fill="#3E4396" transform="translate(3780,534)"/>
<path d="M0 0 C242.55 0 485.1 0 735 0 C733.41 3.19 730.12 3.89 726.98 5.24 C726.25 5.56 725.53 5.87 724.78 6.2 C723.22 6.88 721.65 7.57 720.08 8.25 C715.94 10.04 711.81 11.86 707.68 13.69 C706.44 14.24 706.44 14.24 705.17 14.8 C694.67 19.45 684.35 24.48 674.03 29.52 C669.24 31.86 664.43 34.15 659.62 36.44 C656.79 37.79 653.95 39.15 651.11 40.51 C648.91 41.57 646.7 42.62 644.49 43.68 C630.35 50.43 616.3 57.29 602.48 64.69 C599.7 66.16 596.9 67.61 594.09 69.05 C580.86 75.85 567.84 82.95 554.92 90.35 C551.95 92.03 548.97 93.68 545.99 95.33 C531.79 103.18 517.88 111.41 504.07 119.9 C500.33 122.19 496.58 124.47 492.82 126.73 C480.38 134.24 468.12 141.98 456 150 C454.93 150.71 453.86 151.41 452.76 152.14 C415.64 176.74 379.2 202.34 343.92 229.52 C342.13 230.9 340.34 232.28 338.54 233.65 C327.22 242.32 316.02 251.14 304.97 260.16 C300.64 263.68 296.28 267.14 291.88 270.56 C286.46 274.78 281.23 279.17 276.04 283.66 C271.68 287.43 267.24 291.1 262.77 294.73 C253.9 301.99 245.24 309.49 236.55 316.96 C234.17 319 231.78 321.04 229.39 323.07 C222.98 328.54 216.66 334.07 210.45 339.77 C207.68 342.3 204.85 344.77 202.02 347.23 C197.97 350.78 193.99 354.4 190 358 C188.33 359.5 186.67 361 185 362.5 C184.17 363.25 183.34 363.99 182.49 364.76 C180.86 366.22 179.23 367.69 177.61 369.14 C171.78 374.37 166.02 379.66 160.28 384.97 C157.24 387.78 154.18 390.58 151.12 393.38 C146.46 397.65 141.82 401.94 137.19 406.25 C136.58 406.82 135.97 407.38 135.34 407.97 C131.69 411.37 128.13 414.85 124.63 418.41 C122.96 420.04 121.22 421.56 119.44 423.06 C114.8 427.05 110.55 431.4 106.28 435.76 C103.37 438.72 100.41 441.55 97.26 444.24 C93.08 447.88 89.17 451.72 85.28 455.66 C84.58 456.36 83.88 457.07 83.15 457.8 C80.93 460.03 78.72 462.26 76.5 464.5 C73.58 467.45 70.65 470.4 67.72 473.34 C67.06 474.01 66.41 474.67 65.73 475.36 C61.95 479.16 58.04 482.74 53.98 486.25 C50.68 489.17 47.57 492.28 44.46 495.4 C43.44 496.42 43.44 496.42 42.4 497.47 C40.97 498.9 39.54 500.33 38.11 501.76 C35.94 503.93 33.77 506.1 31.6 508.26 C30.2 509.66 28.8 511.06 27.4 512.46 C26.76 513.1 26.12 513.74 25.47 514.39 C22.38 517.5 19.4 520.65 16.54 523.96 C12.86 528.23 8.92 532.19 4.91 536.16 C4.16 536.9 3.41 537.65 2.63 538.42 C-0.54 541.58 -3.72 544.73 -6.9 547.88 C-9.24 550.2 -11.57 552.52 -13.91 554.84 C-14.61 555.54 -15.32 556.24 -16.05 556.96 C-20.03 560.92 -23.81 565 -27.48 569.25 C-29.23 571.27 -31.07 573.18 -32.96 575.06 C-33.95 576.04 -33.95 576.04 -34.95 577.04 C-35.6 577.68 -36.26 578.33 -36.94 579 C-37.62 579.68 -38.31 580.36 -39.01 581.06 C-40.67 582.71 -42.33 584.36 -44 586 C-44.33 585.34 -44.66 584.68 -45 584 C-43.9 581.41 -42.74 578.94 -41.47 576.43 C-41.09 575.66 -40.7 574.89 -40.31 574.09 C-39.48 572.42 -38.65 570.74 -37.81 569.07 C-35.59 564.62 -33.4 560.15 -31.21 555.68 C-30.76 554.78 -30.32 553.87 -29.86 552.94 C-24.2 541.37 -18.9 529.63 -13.64 517.88 C-11.64 513.41 -9.61 508.95 -7.56 504.5 C14.6 456.27 34.1 406.65 50 356 C50.22 355.3 50.44 354.61 50.66 353.89 C63.93 311.61 73.98 268.19 78 224 C78.07 223.23 78.14 222.46 78.21 221.67 C84.59 147.93 63.69 77.44 16.12 20.52 C15.07 19.27 15.07 19.27 14 18 C12.41 16.09 10.83 14.17 9.25 12.25 C8.55 11.41 7.86 10.57 7.14 9.7 C4.65 6.55 2.33 3.27 0 0 Z " fill="#3E4396" transform="translate(9605,534)"/>
<path d="M0 0 C1.02 -0 2.04 -0 3.1 -0 C19.21 0.01 34.95 0.58 50.88 3.25 C51.91 3.42 52.95 3.59 54.02 3.77 C82.1 8.58 109.78 16.87 135 30.26 C136.88 31.25 138.77 32.22 140.67 33.18 C157.78 41.95 173.5 53.15 187.62 66.19 C189.6 68 191.63 69.72 193.69 71.44 C205.29 81.62 214.85 93.8 223.88 106.25 C224.32 106.86 224.76 107.47 225.22 108.1 C241.41 130.53 260.88 164.85 260.88 193.25 C236.12 193.25 211.38 193.25 185.88 193.25 C184.22 189.29 182.58 185.33 180.88 181.25 C173.57 164.55 164.86 149.08 152.88 135.25 C152.18 134.45 151.49 133.64 150.77 132.81 C141 121.75 130.76 111.96 118.88 103.25 C118.31 102.83 117.74 102.42 117.16 101.99 C89.55 82.01 55.86 68.58 21.88 65.25 C20.83 65.14 19.78 65.03 18.71 64.92 C-28.65 60.59 -79.62 71.62 -117.5 101.31 C-119.05 102.61 -120.6 103.92 -122.12 105.25 C-122.94 105.96 -123.76 106.67 -124.6 107.39 C-127.15 109.64 -129.64 111.93 -132.12 114.25 C-132.93 114.99 -133.73 115.72 -134.55 116.48 C-146.04 127.43 -154.81 140.38 -162.14 154.38 C-163.05 156.11 -164 157.82 -164.95 159.52 C-172.81 174.15 -177.56 190.38 -181 206.56 C-181.19 207.45 -181.38 208.35 -181.58 209.27 C-184.84 225.77 -185.42 242.33 -185.4 259.1 C-185.4 261.22 -185.41 263.33 -185.42 265.45 C-185.43 271.15 -185.43 276.85 -185.43 282.54 C-185.43 287.33 -185.43 292.11 -185.44 296.9 C-185.45 308.21 -185.45 319.51 -185.44 330.82 C-185.43 342.42 -185.45 354.01 -185.47 365.61 C-185.49 375.62 -185.49 385.64 -185.49 395.66 C-185.49 401.61 -185.49 407.57 -185.5 413.52 C-185.94 454.61 -185.94 454.61 -179.44 495.06 C-179.18 496.08 -178.93 497.1 -178.66 498.15 C-170.92 527.82 -156.42 553.48 -136.12 576.25 C-135.43 577.03 -134.74 577.8 -134.03 578.61 C-102.64 611.81 -54.73 627.58 -10.03 629.37 C39.67 630.62 90.64 617.37 128.88 584.25 C130.06 583.23 130.06 583.23 131.28 582.18 C155.77 560.59 173.55 534.88 183.96 503.81 C184.88 501.25 184.88 501.25 185.88 500.25 C188.22 500.16 190.53 500.12 192.87 500.14 C193.97 500.14 193.97 500.14 195.09 500.14 C197.52 500.14 199.95 500.14 202.38 500.15 C204.06 500.15 205.74 500.16 207.42 500.16 C211.85 500.16 216.28 500.17 220.71 500.18 C225.23 500.19 229.75 500.2 234.26 500.2 C243.13 500.21 252 500.23 260.88 500.25 C260.21 507.14 258.92 513.38 256.88 520 C256.57 521 256.26 522 255.94 523.03 C245.81 554.92 228.96 584.28 206.16 608.77 C204.23 610.87 202.39 613 200.56 615.19 C167.05 653.44 115.63 676.78 66.94 687.56 C65.92 687.79 64.9 688.02 63.84 688.26 C42.91 692.63 21.77 693.78 0.44 693.62 C-1.3 693.62 -1.3 693.62 -3.07 693.61 C-19.91 693.53 -36.51 693.23 -53.12 690.25 C-54.3 690.04 -55.48 689.83 -56.69 689.62 C-86.15 684.22 -113.68 675.41 -140.12 661.25 C-141.28 660.64 -142.43 660.03 -143.62 659.39 C-158.29 651.32 -171.64 641.37 -184.12 630.25 C-184.64 629.79 -185.16 629.33 -185.7 628.86 C-214.79 603.16 -235.73 568.88 -248.12 532.25 C-248.4 531.45 -248.68 530.64 -248.96 529.81 C-259.68 497.97 -262.28 464.84 -262.27 431.47 C-262.27 429.44 -262.28 427.42 -262.28 425.39 C-262.29 419.93 -262.29 414.47 -262.29 409.01 C-262.29 405.58 -262.3 402.16 -262.3 398.73 C-262.31 386.73 -262.31 374.73 -262.31 362.73 C-262.31 351.62 -262.32 340.51 -262.34 329.4 C-262.35 319.8 -262.35 310.2 -262.35 300.6 C-262.35 294.89 -262.36 289.18 -262.37 283.48 C-262.49 213.65 -254.8 146.46 -209.12 90.25 C-208.63 89.64 -208.14 89.03 -207.63 88.41 C-164.94 36.34 -101.32 7.99 -35.12 1.25 C-34.22 1.16 -33.31 1.06 -32.38 0.96 C-21.61 -0.01 -10.81 0.01 0 0 Z " fill="#70D8BD" transform="translate(1830.125,2663.75)"/>
<path d="M0 0 C0.94 0.12 1.88 0.25 2.85 0.37 C32.14 4.37 60 12.88 86 27 C86.93 27.5 86.93 27.5 87.88 28.02 C98.55 33.86 107.78 41.11 117 49 C118.37 50.15 118.37 50.15 119.76 51.33 C124.64 55.54 128.92 60.01 133 65 C133.4 65.49 133.81 65.97 134.23 66.48 C170.06 109.76 179.38 163.37 179.27 218.12 C179.27 220.45 179.27 222.78 179.27 225.11 C179.27 229.95 179.27 234.79 179.26 239.63 C179.25 245.77 179.26 251.9 179.27 258.03 C179.28 262.83 179.27 267.62 179.27 272.42 C179.27 274.68 179.27 276.94 179.27 279.19 C179.36 334.76 168.92 390.66 130.05 432.76 C128.28 434.69 126.6 436.66 124.94 438.69 C115.01 450.29 101.17 459.51 88 467 C87.33 467.39 86.66 467.77 85.96 468.17 C51.55 487.76 11.29 497.05 -28.19 497.2 C-29.33 497.21 -30.48 497.21 -31.66 497.22 C-34.07 497.23 -36.49 497.24 -38.9 497.24 C-42.5 497.25 -46.1 497.28 -49.7 497.31 C-88.21 497.49 -127.23 491.17 -162 474 C-162.73 473.64 -163.46 473.28 -164.21 472.91 C-208.6 450.85 -239.1 413.59 -255 367 C-262.49 343.58 -266.16 318.7 -266.15 294.14 C-266.15 293.02 -266.15 291.9 -266.16 290.75 C-266.16 287.08 -266.17 283.42 -266.17 279.75 C-266.17 277.18 -266.17 274.6 -266.18 272.02 C-266.18 266.62 -266.19 261.23 -266.19 255.83 C-266.18 249.65 -266.2 243.48 -266.21 237.3 C-266.23 231.29 -266.23 225.29 -266.23 219.28 C-266.23 216.76 -266.23 214.23 -266.24 211.71 C-266.3 192.22 -265.59 173.03 -261.75 153.88 C-261.43 152.24 -261.43 152.24 -261.1 150.58 C-259.09 140.8 -256.38 131.39 -253 122 C-252.56 120.76 -252.12 119.52 -251.67 118.24 C-243.08 95.4 -230.24 76.01 -214 58 C-212.99 56.88 -212.99 56.88 -211.95 55.73 C-179.66 21.85 -132.18 6.1 -87 0 C-86.13 -0.12 -85.26 -0.24 -84.37 -0.36 C-56.99 -3.88 -27.34 -3.71 0 0 Z M-145 93 C-145.82 93.69 -146.64 94.37 -147.48 95.08 C-166.01 111.05 -177.34 132 -184.25 155.19 C-184.48 155.95 -184.72 156.71 -184.96 157.5 C-190.22 176.17 -190.45 195.32 -190.4 214.56 C-190.4 217.17 -190.4 219.78 -190.41 222.39 C-190.41 227.83 -190.41 233.26 -190.39 238.7 C-190.37 244.92 -190.38 251.14 -190.4 257.37 C-190.41 263.43 -190.41 269.5 -190.4 275.56 C-190.4 278.11 -190.4 280.65 -190.41 283.2 C-190.5 325.99 -181.41 365.43 -151.25 397.19 C-140.57 407.44 -128.52 415.09 -115 421 C-114.37 421.28 -113.74 421.55 -113.09 421.84 C-74.33 438.49 -25.82 438.73 14 426 C15.04 425.67 15.04 425.67 16.1 425.33 C43.08 416.53 67.33 398.46 82 374 C82.56 373.07 82.56 373.07 83.13 372.12 C97.29 348.18 103.13 320.49 103.16 292.86 C103.17 291.79 103.17 290.72 103.18 289.62 C103.19 286.12 103.2 282.62 103.2 279.11 C103.21 277.9 103.21 276.7 103.21 275.45 C103.23 269.04 103.24 262.64 103.24 256.23 C103.25 249.68 103.27 243.12 103.3 236.57 C103.32 231.48 103.32 226.38 103.32 221.29 C103.33 218.88 103.33 216.47 103.35 214.05 C103.57 171.12 95.25 132.13 65 100 C64.46 99.4 63.92 98.79 63.37 98.17 C41.72 74.89 5.73 63.35 -25.28 61.89 C-27.64 61.84 -30 61.81 -32.36 61.8 C-33.24 61.79 -34.11 61.79 -35.01 61.78 C-36.85 61.77 -38.69 61.76 -40.52 61.76 C-43.27 61.75 -46.01 61.72 -48.75 61.69 C-83 61.48 -118.66 70.11 -145 93 Z " fill="#70D8BD" transform="translate(8860,2860)"/>
<path d="M0 0 C0.94 0.12 1.88 0.25 2.85 0.37 C32.14 4.37 60 12.88 86 27 C86.93 27.5 86.93 27.5 87.88 28.02 C98.55 33.86 107.78 41.11 117 49 C118.37 50.15 118.37 50.15 119.76 51.33 C124.64 55.54 128.92 60.01 133 65 C133.4 65.49 133.81 65.97 134.23 66.48 C170.06 109.76 179.38 163.37 179.27 218.12 C179.27 220.45 179.27 222.78 179.27 225.11 C179.27 229.95 179.27 234.79 179.26 239.63 C179.25 245.77 179.26 251.9 179.27 258.03 C179.28 262.83 179.27 267.62 179.27 272.42 C179.27 274.68 179.27 276.94 179.27 279.19 C179.36 334.76 168.92 390.66 130.05 432.76 C128.28 434.69 126.6 436.66 124.94 438.69 C115.01 450.29 101.17 459.51 88 467 C87.33 467.39 86.66 467.77 85.96 468.17 C51.55 487.76 11.29 497.05 -28.19 497.2 C-29.33 497.21 -30.48 497.21 -31.66 497.22 C-34.07 497.23 -36.49 497.24 -38.9 497.24 C-42.5 497.25 -46.1 497.28 -49.7 497.31 C-88.21 497.49 -127.23 491.17 -162 474 C-162.73 473.64 -163.46 473.28 -164.21 472.91 C-208.6 450.85 -239.1 413.59 -255 367 C-262.49 343.58 -266.16 318.7 -266.15 294.14 C-266.15 293.02 -266.15 291.9 -266.16 290.75 C-266.16 287.08 -266.17 283.42 -266.17 279.75 C-266.17 277.18 -266.17 274.6 -266.18 272.02 C-266.18 266.62 -266.19 261.23 -266.19 255.83 C-266.18 249.65 -266.2 243.48 -266.21 237.3 C-266.23 231.29 -266.23 225.29 -266.23 219.28 C-266.23 216.76 -266.23 214.23 -266.24 211.71 C-266.3 192.22 -265.59 173.03 -261.75 153.88 C-261.43 152.24 -261.43 152.24 -261.1 150.58 C-259.09 140.8 -256.38 131.39 -253 122 C-252.56 120.76 -252.12 119.52 -251.67 118.24 C-243.08 95.4 -230.24 76.01 -214 58 C-212.99 56.88 -212.99 56.88 -211.95 55.73 C-179.66 21.85 -132.18 6.1 -87 0 C-86.13 -0.12 -85.26 -0.24 -84.37 -0.36 C-56.99 -3.88 -27.34 -3.71 0 0 Z M-145 93 C-145.82 93.69 -146.64 94.37 -147.48 95.08 C-166.01 111.05 -177.34 132 -184.25 155.19 C-184.48 155.95 -184.72 156.71 -184.96 157.5 C-190.22 176.17 -190.45 195.32 -190.4 214.56 C-190.4 217.17 -190.4 219.78 -190.41 222.39 C-190.41 227.83 -190.41 233.26 -190.39 238.7 C-190.37 244.92 -190.38 251.14 -190.4 257.37 C-190.41 263.43 -190.41 269.5 -190.4 275.56 C-190.4 278.11 -190.4 280.65 -190.41 283.2 C-190.5 325.99 -181.41 365.43 -151.25 397.19 C-140.57 407.44 -128.52 415.09 -115 421 C-114.37 421.28 -113.74 421.55 -113.09 421.84 C-74.33 438.49 -25.82 438.73 14 426 C15.04 425.67 15.04 425.67 16.1 425.33 C43.08 416.53 67.33 398.46 82 374 C82.56 373.07 82.56 373.07 83.13 372.12 C97.3 348.16 103.1 320.48 103.18 292.83 C103.18 291.76 103.19 290.69 103.2 289.59 C103.22 286.07 103.23 282.55 103.24 279.04 C103.24 277.82 103.25 276.61 103.25 275.35 C103.27 268.91 103.29 262.47 103.3 256.02 C103.31 249.45 103.34 242.87 103.38 236.29 C103.41 231.17 103.41 226.04 103.42 220.92 C103.42 218.5 103.43 216.08 103.45 213.66 C103.76 170.95 95.13 131.55 65 100 C64.46 99.4 63.93 98.8 63.38 98.18 C41.75 74.89 5.72 63.35 -25.28 61.89 C-27.64 61.84 -30 61.81 -32.36 61.8 C-33.24 61.79 -34.11 61.79 -35.01 61.78 C-36.85 61.77 -38.69 61.76 -40.52 61.76 C-43.27 61.75 -46.01 61.72 -48.75 61.69 C-83 61.48 -118.66 70.11 -145 93 Z " fill="#70D8BD" transform="translate(2694,2860)"/>
<path d="M0 0 C0.83 -0 1.67 -0 2.53 -0 C43.08 0.05 86.45 8.01 118.75 34.25 C119.63 34.93 120.52 35.62 121.43 36.32 C160.51 67.17 178.52 113.79 184.36 162.09 C185.42 172.66 185.9 183.19 185.87 193.82 C185.87 195.75 185.87 195.75 185.87 197.73 C185.88 201.26 185.87 204.8 185.87 208.34 C185.86 212.17 185.86 216 185.86 219.83 C185.86 226.45 185.86 233.07 185.86 239.7 C185.85 249.27 185.84 258.85 185.84 268.42 C185.84 283.96 185.83 299.5 185.83 315.03 C185.82 330.12 185.81 345.21 185.8 360.29 C185.8 361.69 185.8 361.69 185.8 363.11 C185.8 367.79 185.8 372.46 185.8 377.13 C185.79 415.84 185.77 454.54 185.75 493.25 C160.67 493.25 135.59 493.25 109.75 493.25 C109.74 483.9 109.72 474.56 109.71 464.93 C109.66 434.96 109.59 405 109.52 375.03 C109.51 370.37 109.5 365.71 109.49 361.05 C109.48 359.66 109.48 359.66 109.48 358.24 C109.45 343.25 109.42 328.26 109.4 313.27 C109.38 297.87 109.34 282.47 109.3 267.07 C109.27 257.58 109.26 248.09 109.25 238.6 C109.25 232.08 109.23 225.56 109.2 219.04 C109.19 215.28 109.18 211.53 109.18 207.78 C109.22 167.55 102.27 130.64 73.5 100.56 C45.67 73.71 6.93 64.84 -30.68 64.93 C-33.42 64.94 -36.16 64.91 -38.9 64.89 C-75.98 64.76 -113.49 74.28 -140.67 100.67 C-141.52 101.52 -142.37 102.37 -143.25 103.25 C-143.92 103.92 -144.58 104.58 -145.27 105.27 C-156.27 117.07 -162.79 132.18 -167 147.56 C-167.2 148.27 -167.4 148.98 -167.6 149.71 C-172.1 167.2 -171.56 185.28 -171.57 203.19 C-171.57 207.09 -171.59 211 -171.6 214.9 C-171.62 221.64 -171.64 228.38 -171.65 235.12 C-171.66 244.87 -171.69 254.62 -171.71 264.37 C-171.76 280.19 -171.8 296.01 -171.83 311.82 C-171.86 327.18 -171.89 342.54 -171.93 357.89 C-171.94 358.84 -171.94 359.79 -171.94 360.77 C-171.95 365.52 -171.96 370.28 -171.98 375.04 C-172.08 414.44 -172.17 453.85 -172.25 493.25 C-197.33 493.25 -222.41 493.25 -248.25 493.25 C-248.25 332.87 -248.25 172.49 -248.25 7.25 C-223.17 7.25 -198.09 7.25 -172.25 7.25 C-171.92 28.37 -171.59 49.49 -171.25 71.25 C-166.8 65.8 -166.8 65.8 -162.25 60.25 C-121.22 14.91 -59.17 0.04 0 0 Z " fill="#70D8BD" transform="translate(9648.25,2857.75)"/>
<path d="M0 0 C0.83 -0 1.67 -0 2.53 -0 C43.08 0.05 86.45 8.01 118.75 34.25 C119.63 34.93 120.52 35.62 121.43 36.32 C160.51 67.17 178.52 113.79 184.36 162.09 C185.42 172.66 185.9 183.19 185.87 193.82 C185.87 195.75 185.87 195.75 185.87 197.73 C185.88 201.26 185.87 204.8 185.87 208.34 C185.86 212.17 185.86 216 185.86 219.83 C185.86 226.45 185.86 233.07 185.86 239.7 C185.85 249.27 185.84 258.85 185.84 268.42 C185.84 283.96 185.83 299.5 185.83 315.03 C185.82 330.12 185.81 345.21 185.8 360.29 C185.8 361.69 185.8 361.69 185.8 363.11 C185.8 367.79 185.8 372.46 185.8 377.13 C185.79 415.84 185.77 454.54 185.75 493.25 C160.67 493.25 135.59 493.25 109.75 493.25 C109.74 483.9 109.72 474.56 109.71 464.93 C109.66 434.96 109.59 405 109.52 375.03 C109.51 370.37 109.5 365.71 109.49 361.05 C109.48 359.66 109.48 359.66 109.48 358.24 C109.45 343.25 109.42 328.26 109.4 313.27 C109.38 297.87 109.34 282.47 109.3 267.07 C109.27 257.58 109.26 248.09 109.25 238.6 C109.25 232.08 109.23 225.56 109.2 219.04 C109.19 215.28 109.18 211.53 109.18 207.78 C109.22 167.55 102.27 130.64 73.5 100.56 C45.67 73.71 6.93 64.84 -30.68 64.93 C-33.42 64.94 -36.16 64.91 -38.9 64.89 C-75.98 64.76 -113.49 74.28 -140.67 100.67 C-141.52 101.52 -142.37 102.37 -143.25 103.25 C-143.92 103.92 -144.58 104.58 -145.27 105.27 C-156.27 117.07 -162.79 132.18 -167 147.56 C-167.2 148.27 -167.4 148.98 -167.6 149.71 C-172.1 167.2 -171.56 185.28 -171.57 203.19 C-171.57 207.09 -171.59 211 -171.6 214.9 C-171.62 221.64 -171.64 228.38 -171.65 235.12 C-171.66 244.87 -171.69 254.62 -171.71 264.37 C-171.76 280.19 -171.8 296.01 -171.83 311.82 C-171.86 327.18 -171.89 342.54 -171.93 357.89 C-171.94 358.84 -171.94 359.79 -171.94 360.77 C-171.95 365.52 -171.96 370.28 -171.98 375.04 C-172.08 414.44 -172.17 453.85 -172.25 493.25 C-197.33 493.25 -222.41 493.25 -248.25 493.25 C-248.25 332.87 -248.25 172.49 -248.25 7.25 C-223.17 7.25 -198.09 7.25 -172.25 7.25 C-171.92 28.37 -171.59 49.49 -171.25 71.25 C-166.8 65.8 -166.8 65.8 -162.25 60.25 C-121.22 14.91 -59.17 0.04 0 0 Z " fill="#70D8BD" transform="translate(3482.25,2857.75)"/>
<path d="M0 0 C25.08 0 50.16 0 76 0 C76.02 9.17 76.04 18.34 76.06 27.79 C76.12 57.18 76.2 86.58 76.28 115.98 C76.29 120.55 76.31 125.12 76.32 129.69 C76.32 130.6 76.32 131.51 76.32 132.45 C76.36 147.16 76.4 161.86 76.43 176.57 C76.46 191.67 76.5 206.78 76.54 221.89 C76.57 231.2 76.59 240.51 76.61 249.82 C76.62 256.22 76.64 262.61 76.66 269.01 C76.67 272.69 76.68 276.38 76.68 280.06 C76.66 308.13 76.66 308.13 81.25 335.75 C81.47 336.62 81.68 337.49 81.9 338.39 C89.55 368.14 107.34 393.34 133.85 409.1 C174.38 432.12 227.86 433.41 271.99 421.47 C280.37 419.06 288.2 415.88 296 412 C297.47 411.29 297.47 411.29 298.96 410.57 C322.59 398.54 340.53 376.95 348.76 351.84 C349.31 350.04 349.85 348.24 350.38 346.44 C350.61 345.62 350.85 344.81 351.1 343.97 C354.41 331.83 355.3 319.54 355.28 307.01 C355.28 305.67 355.29 304.34 355.3 303 C355.31 299.37 355.32 295.75 355.32 292.12 C355.32 288.19 355.34 284.26 355.35 280.34 C355.37 273.55 355.39 266.76 355.4 259.97 C355.41 250.15 355.44 240.33 355.46 230.52 C355.51 214.58 355.55 198.65 355.58 182.72 C355.61 167.26 355.64 151.79 355.68 136.32 C355.69 135.37 355.69 134.41 355.69 133.43 C355.7 128.64 355.71 123.85 355.73 119.06 C355.83 79.37 355.92 39.69 356 0 C380.75 0 405.5 0 431 0 C431 160.38 431 320.76 431 486 C406.25 486 381.5 486 356 486 C355.67 465.21 355.34 444.42 355 423 C352.03 426.63 349.06 430.26 346 434 C333.89 447.12 319.54 457.32 304 466 C303.4 466.34 302.8 466.69 302.18 467.04 C272.11 484.25 236.29 492.05 201.8 492.2 C200.76 492.21 199.72 492.21 198.65 492.22 C196.45 492.23 194.26 492.24 192.07 492.24 C188.8 492.25 185.53 492.28 182.26 492.31 C137.28 492.54 93.47 480.83 59 451 C58.2 450.32 57.39 449.64 56.57 448.94 C51.58 444.63 47.16 440.11 43 435 C42.25 434.1 41.5 433.2 40.73 432.27 C3.65 386.14 -0.2 327.8 -0.12 271.05 C-0.11 267.4 -0.11 263.75 -0.11 260.09 C-0.11 253.79 -0.11 247.49 -0.11 241.19 C-0.1 232.09 -0.09 222.98 -0.09 213.87 C-0.09 199.09 -0.08 184.3 -0.08 169.52 C-0.07 155.17 -0.06 140.83 -0.05 126.48 C-0.05 125.6 -0.05 124.71 -0.05 123.8 C-0.05 119.34 -0.05 114.89 -0.05 110.44 C-0.04 73.63 -0.02 36.81 0 0 Z " fill="#70D8BD" transform="translate(6027,2865)"/>
<path d="M0 0 C-2.61 4.14 -5.27 7.47 -8.81 10.88 C-12.52 14.5 -15.99 18.2 -19.36 22.14 C-21 24 -22.72 25.75 -24.5 27.5 C-26.94 29.9 -29.25 32.36 -31.5 34.94 C-32.08 35.59 -32.65 36.25 -33.25 36.93 C-34.46 38.36 -35.64 39.83 -36.79 41.32 C-37.37 42.06 -37.96 42.8 -38.56 43.56 C-39.34 44.59 -39.34 44.59 -40.13 45.63 C-42 47 -42 47 -44.62 47 C-49.17 45.65 -53.21 43.62 -57.44 41.5 C-68.72 35.99 -80.21 31.31 -92 27 C-92.95 26.65 -93.9 26.3 -94.89 25.95 C-131.14 12.88 -171.26 4.17 -210 6 C-211.01 6.05 -212.02 6.09 -213.06 6.14 C-252.56 8.11 -294.71 13.87 -324 43 C-324.62 43.59 -325.25 44.18 -325.89 44.78 C-338.7 57.91 -343.21 77.2 -343 95 C-342.21 108.7 -338.09 121.34 -328 131 C-286.74 162.35 -224.56 158.71 -175.21 161.52 C-151.14 162.91 -127.09 164.72 -103.31 168.88 C-102.56 169 -101.81 169.13 -101.03 169.26 C-89.53 171.24 -78.12 173.38 -67 177 C-66.32 177.22 -65.63 177.44 -64.93 177.67 C-45.74 184.05 -29.71 194.1 -15 208 C-14.16 208.76 -13.33 209.52 -12.47 210.3 C1.72 223.68 9.59 241.17 14 260 C14.45 261.92 14.45 261.92 14.91 263.88 C19.25 284.91 19.64 311.2 14 332 C13.81 332.71 13.62 333.43 13.43 334.16 C4.12 368.13 -18.96 394.52 -49.14 411.85 C-92.95 436.45 -144.51 446.03 -194.4 446.2 C-195.06 446.21 -195.73 446.21 -196.42 446.21 C-199.96 446.23 -203.51 446.24 -207.05 446.24 C-209.9 446.24 -212.75 446.26 -215.6 446.28 C-261.3 446.64 -306.97 440.76 -350.35 425.9 C-352.09 425.31 -353.84 424.72 -355.59 424.15 C-385.26 414.42 -412.96 399.56 -438 381 C-437.41 377.45 -436.13 375.73 -433.65 373.17 C-432.62 372.09 -432.62 372.09 -431.57 371 C-430.84 370.25 -430.12 369.51 -429.38 368.75 C-427.96 367.29 -426.56 365.82 -425.15 364.36 C-424.45 363.63 -423.75 362.91 -423.03 362.16 C-420.52 359.49 -418.12 356.73 -415.71 353.96 C-412.25 350 -408.6 346.2 -404.99 342.38 C-401.83 339.03 -398.81 335.65 -396 332 C-391.14 333.42 -386.97 335.58 -382.62 338.12 C-375.21 342.38 -367.69 346.3 -360 350.02 C-358.04 350.98 -356.08 351.95 -354.13 352.93 C-310.04 374.57 -260.9 387.25 -211.75 387.19 C-210.91 387.19 -210.07 387.19 -209.21 387.19 C-162.04 387.09 -108.64 381.01 -72.75 347.25 C-57.47 331.41 -53.4 312.81 -53.76 291.62 C-54.21 278.15 -58.23 265.64 -68 256 C-68 255.34 -68 254.68 -68 254 C-68.56 253.74 -69.13 253.49 -69.71 253.23 C-72.29 251.85 -74.39 250.18 -76.69 248.38 C-113.98 221.09 -171.66 222.97 -215.75 220 C-316.33 213.21 -316.33 213.21 -353 196 C-353.61 195.71 -354.22 195.43 -354.85 195.13 C-378.53 183.86 -398.69 164.97 -407.72 140 C-419.27 105.51 -416.95 64.67 -400.75 32.1 C-396.6 24.15 -391.76 16.89 -386 10 C-385.17 9 -384.34 8.01 -383.48 6.98 C-376.81 -0.75 -369.28 -7.05 -361 -13 C-359.95 -13.76 -358.89 -14.52 -357.8 -15.3 C-278.31 -69.22 -158.73 -61.03 0 0 Z " fill="#70D8BD" transform="translate(4440,2911)"/>
<path d="M0 0 C0.34 35.81 0.61 71.63 0.77 107.44 C0.78 111.68 0.8 115.91 0.82 120.14 C0.83 120.98 0.83 121.83 0.84 122.7 C0.9 136.32 1.02 149.95 1.16 163.57 C1.3 177.56 1.38 191.55 1.41 205.55 C1.43 214.17 1.5 222.8 1.62 231.43 C1.7 237.35 1.72 243.27 1.7 249.2 C1.69 252.61 1.71 256.02 1.79 259.43 C2.22 280.95 2.22 280.95 -3.31 287.68 C-6.37 290.8 -9.67 293.4 -13.29 295.84 C-15.39 297.26 -17.22 298.89 -19.06 300.62 C-20.87 302.18 -22.68 303.73 -24.49 305.27 C-31.9 311.57 -39.2 317.96 -46.34 324.55 C-50.85 328.7 -55.48 332.71 -60.14 336.67 C-66.1 341.74 -71.98 346.85 -77.69 352.19 C-81.5 355.75 -85.36 359.17 -89.44 362.44 C-95.14 367.02 -100.44 371.99 -105.77 376.98 C-110.8 381.69 -115.91 386.19 -121.38 390.38 C-126.5 394.31 -131.23 398.65 -136 403 C-139.69 406.28 -143.43 409.51 -147.19 412.71 C-154.02 418.53 -160.74 424.45 -167.33 430.54 C-170.18 433.17 -173.09 435.73 -176.02 438.27 C-178.31 440.27 -180.56 442.32 -182.81 444.38 C-186.21 447.45 -189.68 450.38 -193.25 453.25 C-199.01 457.91 -204.39 462.94 -209.79 468 C-214.45 472.37 -219.27 476.53 -224.14 480.66 C-230.09 485.73 -235.97 490.84 -241.69 496.19 C-245.5 499.75 -249.36 503.17 -253.44 506.44 C-259.15 511.02 -264.45 516 -269.79 521 C-273.45 524.43 -277.19 527.74 -281 531 C-282.1 531.95 -283.21 532.89 -284.31 533.84 C-286.15 535.42 -288 537 -289.84 538.57 C-293.81 541.97 -297.75 545.4 -301.64 548.89 C-303 550 -303 550 -304 550 C-304.18 514.19 -304.32 478.39 -304.41 442.58 C-304.42 438.36 -304.43 434.13 -304.44 429.9 C-304.44 429.06 -304.44 428.22 -304.45 427.35 C-304.48 413.72 -304.54 400.1 -304.62 386.47 C-304.69 372.49 -304.74 358.51 -304.75 344.53 C-304.76 335.9 -304.8 327.27 -304.86 318.64 C-304.91 312.73 -304.92 306.81 -304.91 300.89 C-304.9 297.48 -304.91 294.07 -304.95 290.65 C-304.99 286.95 -304.98 283.25 -304.96 279.55 C-304.99 278.47 -305.01 277.39 -305.03 276.28 C-304.92 269.14 -304.92 269.14 -302.25 265.82 C-300.24 264.05 -298.2 262.51 -296 261 C-294.33 259.5 -292.66 258 -291 256.5 C-287.38 253.24 -283.74 250.01 -280.06 246.81 C-277.69 244.73 -275.34 242.62 -273 240.5 C-269.38 237.24 -265.74 234.01 -262.06 230.81 C-259.69 228.73 -257.34 226.62 -255 224.5 C-251.38 221.24 -247.74 218.01 -244.06 214.81 C-241.69 212.73 -239.34 210.62 -237 208.5 C-233.38 205.24 -229.74 202.01 -226.06 198.81 C-223.69 196.73 -221.34 194.62 -219 192.5 C-215.38 189.24 -211.74 186.01 -208.06 182.81 C-205.69 180.73 -203.34 178.62 -201 176.5 C-197.38 173.24 -193.74 170.01 -190.06 166.81 C-186.82 163.97 -183.63 161.07 -180.43 158.18 C-178.32 156.29 -176.2 154.42 -174.06 152.56 C-170.83 149.75 -167.66 146.88 -164.5 144 C-160.71 140.55 -156.9 137.14 -153.03 133.78 C-150.67 131.71 -148.33 129.6 -146 127.5 C-142.38 124.24 -138.74 121.01 -135.06 117.81 C-132.69 115.73 -130.34 113.62 -128 111.5 C-124.38 108.24 -120.74 105.01 -117.06 101.81 C-114.69 99.73 -112.34 97.62 -110 95.5 C-106.38 92.24 -102.74 89.01 -99.06 85.81 C-96.69 83.73 -94.34 81.62 -92 79.5 C-88.38 76.24 -84.74 73.01 -81.06 69.81 C-78.69 67.73 -76.34 65.62 -74 63.5 C-70.38 60.24 -66.74 57.01 -63.06 53.81 C-60.69 51.73 -58.34 49.62 -56 47.5 C-52.38 44.24 -48.74 41.01 -45.06 37.81 C-42.69 35.73 -40.34 33.62 -38 31.5 C-34.38 28.24 -30.74 25.01 -27.06 21.81 C-24.69 19.73 -22.34 17.62 -20 15.5 C-2.81 0 -2.81 0 0 0 Z " fill="#6FD7BC" transform="translate(6174,144)"/>
<path d="M0 0 C16.11 15.19 16.11 15.19 20.69 21.44 C20.69 22.1 20.69 22.76 20.69 23.44 C18.72 25.12 16.75 26.69 14.69 28.25 C13.39 29.24 12.1 30.24 10.81 31.24 C9.8 32.02 9.8 32.02 8.76 32.82 C5.36 35.47 2.02 38.21 -1.31 40.94 C-6.94 45.53 -12.62 50.06 -18.34 54.53 C-23.74 58.75 -29.04 63.08 -34.31 67.44 C-38.46 65.83 -41.02 62.78 -44 59.62 C-69.02 33.93 -103.17 17.53 -138.31 11.44 C-139.34 11.26 -140.37 11.08 -141.43 10.9 C-152.72 9.16 -163.91 9.08 -175.31 9.12 C-176.31 9.13 -177.31 9.13 -178.34 9.13 C-192.86 9.18 -207.03 9.58 -221.31 12.44 C-222.21 12.6 -223.1 12.77 -224.02 12.94 C-248.2 17.5 -271.6 26.06 -290.31 42.44 C-291.06 43.04 -291.8 43.64 -292.57 44.26 C-317.56 65.04 -327.7 98.67 -331.1 129.82 C-331.49 134.61 -331.47 139.41 -331.47 144.22 C-331.48 145.36 -331.48 146.51 -331.49 147.69 C-331.5 151.46 -331.51 155.24 -331.52 159.01 C-331.52 160.99 -331.52 162.97 -331.53 164.94 C-331.54 170.46 -331.55 175.97 -331.55 181.48 C-331.56 188.55 -331.57 195.61 -331.6 202.67 C-331.62 208.18 -331.63 213.68 -331.64 219.18 C-331.64 222.45 -331.64 225.71 -331.66 228.98 C-331.85 269.01 -325.38 309.9 -296.18 339.61 C-295.23 340.55 -294.27 341.5 -293.31 342.44 C-292.55 343.2 -291.79 343.96 -291.01 344.74 C-285.09 350.32 -278.39 354.48 -271.31 358.44 C-270.71 358.78 -270.1 359.12 -269.47 359.47 C-221.9 385.71 -158.27 384.92 -107.31 370.44 C-78.39 362.02 -49.84 345.69 -29.31 323.44 C-26.5 324.73 -24.38 326.1 -22.14 328.23 C-21.56 328.77 -20.99 329.32 -20.39 329.88 C-19.79 330.46 -19.18 331.03 -18.56 331.62 C-17.3 332.81 -16.04 334 -14.78 335.19 C-14.18 335.75 -13.57 336.32 -12.95 336.91 C-10.46 339.24 -7.88 341.47 -5.3 343.7 C-2.77 345.91 -0.29 348.17 2.19 350.44 C8.22 355.94 14.25 361.41 20.69 366.44 C19.03 370.49 16.2 373.42 13.25 376.56 C12.71 377.14 12.17 377.71 11.62 378.31 C-29.2 421.5 -90.07 441.6 -148.53 443.54 C-151.96 443.6 -155.38 443.63 -158.81 443.64 C-160.08 443.65 -161.34 443.65 -162.65 443.66 C-165.33 443.67 -168.01 443.67 -170.69 443.68 C-174.68 443.68 -178.67 443.72 -182.67 443.75 C-243.95 444 -308.06 431.13 -354.31 388.44 C-355.14 387.68 -355.97 386.92 -356.82 386.14 C-391.83 352.66 -406.44 300.53 -408.31 253.44 C-408.51 244.41 -408.48 235.37 -408.48 226.34 C-408.48 224.37 -408.49 222.39 -408.49 220.42 C-408.5 214.23 -408.5 208.03 -408.5 201.84 C-408.5 195.51 -408.51 189.18 -408.52 182.85 C-408.54 177.37 -408.54 171.88 -408.54 166.4 C-408.54 163.14 -408.54 159.89 -408.55 156.64 C-408.61 137.58 -407.94 118.74 -404.56 99.94 C-404.39 98.99 -404.23 98.05 -404.05 97.08 C-402.17 86.99 -399.46 77.2 -396.31 67.44 C-396.09 66.74 -395.86 66.03 -395.63 65.31 C-389.89 47.71 -380.87 30.9 -369.31 16.44 C-368.85 15.85 -368.38 15.27 -367.9 14.67 C-332.78 -28.85 -278.48 -47.61 -224.31 -53.56 C-223.42 -53.67 -222.53 -53.77 -221.61 -53.87 C-146.16 -62.22 -58.21 -53.29 0 0 Z " fill="#70D8BD" transform="translate(7223.3125,2913.5625)"/>
<path d="M0 0 C25.08 0 50.16 0 76 0 C76 46.53 76 93.06 76 141 C113.29 141 150.58 141 189 141 C189 160.47 189 179.94 189 200 C151.71 200 114.42 200 76 200 C76.08 239.13 76.17 278.25 76.28 317.38 C76.29 322 76.31 326.63 76.32 331.25 C76.32 332.17 76.32 333.09 76.32 334.04 C76.36 348.93 76.4 363.81 76.43 378.7 C76.46 393.98 76.5 409.27 76.54 424.55 C76.57 433.98 76.59 443.4 76.61 452.83 C76.62 459.3 76.64 465.77 76.66 472.24 C76.67 475.97 76.68 479.69 76.68 483.42 C76.69 487.48 76.7 491.53 76.72 495.59 C76.72 497.33 76.72 497.33 76.72 499.11 C76.84 517.74 79.99 535.16 93.03 549.18 C106.25 561.85 122.59 564.43 140.27 564.51 C142.14 564.54 142.14 564.54 144.04 564.56 C148.63 564.62 153.22 564.65 157.81 564.69 C168.1 564.79 178.4 564.89 189 565 C189 586.12 189 607.24 189 629 C171.33 629.12 171.33 629.12 163.61 629.15 C158.41 629.16 153.21 629.18 148 629.23 C106.45 629.55 63.6 628.43 31.69 598.19 C14.81 580.4 5.93 556.94 2.19 533 C2.08 532.29 1.96 531.58 1.85 530.85 C-0.68 512.44 -0.14 493.59 -0.12 475.06 C-0.11 471.36 -0.11 467.65 -0.11 463.95 C-0.11 457.56 -0.11 451.16 -0.11 444.77 C-0.1 435.53 -0.09 426.28 -0.09 417.04 C-0.09 402.04 -0.08 387.04 -0.08 372.04 C-0.07 357.48 -0.06 342.92 -0.05 328.36 C-0.05 327.46 -0.05 326.56 -0.05 325.63 C-0.05 321.12 -0.05 316.6 -0.05 312.09 C-0.04 274.72 -0.02 237.36 0 200 C-18.15 200 -36.3 200 -55 200 C-55 180.53 -55 161.06 -55 141 C-36.85 141 -18.7 141 0 141 C0 94.47 0 47.94 0 0 Z " fill="#70D8BD" transform="translate(7585,2724)"/>
<path d="M0 0 C25.08 0 50.16 0 76 0 C76 46.53 76 93.06 76 141 C113.29 141 150.58 141 189 141 C189 160.47 189 179.94 189 200 C151.71 200 114.42 200 76 200 C76.08 239.13 76.17 278.25 76.28 317.38 C76.29 322 76.31 326.63 76.32 331.25 C76.32 332.17 76.32 333.09 76.32 334.04 C76.36 348.93 76.4 363.81 76.43 378.7 C76.46 393.98 76.5 409.27 76.54 424.55 C76.57 433.98 76.59 443.4 76.61 452.83 C76.62 459.3 76.64 465.77 76.66 472.24 C76.67 475.97 76.68 479.69 76.68 483.42 C76.69 487.48 76.7 491.53 76.72 495.59 C76.72 497.33 76.72 497.33 76.72 499.11 C76.84 517.74 79.99 535.16 93.03 549.18 C106.25 561.85 122.59 564.43 140.27 564.51 C142.14 564.54 142.14 564.54 144.04 564.56 C148.63 564.62 153.22 564.65 157.81 564.69 C168.1 564.79 178.4 564.89 189 565 C189 586.12 189 607.24 189 629 C171.33 629.12 171.33 629.12 163.61 629.15 C158.41 629.16 153.21 629.18 148 629.23 C106.45 629.55 63.6 628.43 31.69 598.19 C14.81 580.4 5.93 556.94 2.19 533 C2.08 532.29 1.96 531.58 1.85 530.85 C-0.68 512.44 -0.14 493.59 -0.12 475.06 C-0.11 471.36 -0.11 467.65 -0.11 463.95 C-0.11 457.56 -0.11 451.16 -0.11 444.77 C-0.1 435.53 -0.09 426.28 -0.09 417.04 C-0.09 402.04 -0.08 387.04 -0.08 372.04 C-0.07 357.48 -0.06 342.92 -0.05 328.36 C-0.05 327.46 -0.05 326.56 -0.05 325.63 C-0.05 321.12 -0.05 316.6 -0.05 312.09 C-0.04 274.72 -0.02 237.36 0 200 C-18.15 200 -36.3 200 -55 200 C-55 180.53 -55 161.06 -55 141 C-36.85 141 -18.7 141 0 141 C0 94.47 0 47.94 0 0 Z " fill="#70D8BD" transform="translate(4817,2724)"/>
<path d="M0 0 C75.57 0 151.14 0 229 0 C229 80.52 229 161.04 229 244 C153.43 244 77.86 244 0 244 C0 163.48 0 82.96 0 0 Z " fill="#70D8BD" transform="translate(2791,2015)"/>
<path d="M0 0 C75.57 0 151.14 0 229 0 C229 80.52 229 161.04 229 244 C153.43 244 77.86 244 0 244 C0 163.48 0 82.96 0 0 Z " fill="#70D8BD" transform="translate(2442,2015)"/>
<path d="M0 0 C75.57 0 151.14 0 229 0 C229 80.19 229 160.38 229 243 C153.43 243 77.86 243 0 243 C0 162.81 0 82.62 0 0 Z " fill="#70D8BD" transform="translate(2791,1696)"/>
<path d="M0 0 C75.57 0 151.14 0 229 0 C229 80.19 229 160.38 229 243 C153.43 243 77.86 243 0 243 C0 162.81 0 82.62 0 0 Z " fill="#70D8BD" transform="translate(2442,1696)"/>
<path d="M0 0 C0.74 -0 1.49 -0 2.25 -0 C45.22 0.06 87.6 9.97 120.94 38.25 C116.86 44.03 112.3 49.2 107.51 54.39 C105.06 57.12 102.74 59.9 100.44 62.75 C97.38 66.53 94.23 70.17 90.94 73.75 C84.6 80.64 78.78 87.94 72.94 95.25 C69.68 93.77 67.07 91.88 64.25 89.69 C40.97 72.68 12 65.19 -16.61 65.05 C-17.5 65.04 -18.39 65.04 -19.31 65.03 C-21.19 65.02 -23.08 65.01 -24.96 65.01 C-27.76 65 -30.57 64.97 -33.37 64.94 C-71.36 64.71 -110.54 74.79 -138.31 101.94 C-151.65 115.47 -159.91 131.52 -164.88 149.75 C-165.07 150.46 -165.27 151.17 -165.47 151.9 C-169.79 169.01 -169.37 186.48 -169.38 203.99 C-169.38 207.88 -169.4 211.77 -169.41 215.66 C-169.43 222.39 -169.45 229.11 -169.46 235.83 C-169.47 245.55 -169.5 255.28 -169.53 265 C-169.57 280.77 -169.61 296.55 -169.64 312.32 C-169.67 327.64 -169.71 342.95 -169.75 358.26 C-169.75 359.21 -169.75 360.16 -169.75 361.13 C-169.76 365.87 -169.78 370.62 -169.79 375.36 C-169.89 414.66 -169.98 453.95 -170.06 493.25 C-195.14 493.25 -220.22 493.25 -246.06 493.25 C-246.06 332.87 -246.06 172.49 -246.06 7.25 C-220.98 7.25 -195.9 7.25 -170.06 7.25 C-169.73 29.36 -169.4 51.47 -169.06 74.25 C-162.13 66.82 -162.13 66.82 -155.06 59.25 C-143.32 47.91 -130.27 38.3 -116.06 30.25 C-115.33 29.83 -114.59 29.42 -113.84 28.98 C-86.86 13.82 -57.79 4.75 -27.06 1.25 C-26.25 1.16 -25.44 1.06 -24.61 0.96 C-16.42 0.11 -8.23 0.01 0 0 Z " fill="#70D8BD" transform="translate(5607.0625,2857.75)"/>
<path d="M0 0 C25.08 0 50.16 0 76 0 C76 160.38 76 320.76 76 486 C50.92 486 25.84 486 0 486 C0 325.62 0 165.24 0 0 Z " fill="#70D8BD" transform="translate(8146,2865)"/>
<path d="M0 0 C25.08 0 50.16 0 76 0 C76 22.44 76 44.88 76 68 C50.92 68 25.84 68 0 68 C0 45.56 0 23.12 0 0 Z " fill="#70D8BD" transform="translate(8146,2671)"/>
</svg>
